<?xml version="1.0" encoding="UTF-8" standalone="no"?>
<!DOCTYPE svg PUBLIC "-//W3C//DTD SVG 1.0//EN" "http://www.w3.org/TR/2001/REC-SVG-20010904/DTD/svg10.dtd">
<!-- Generated by Microsoft Visio 11.0, SVG Export, v1.0 security case-study.svg Page-1 -->
<svg xmlns="http://www.w3.org/2000/svg" xmlns:v="http://schemas.microsoft.com/visio/2003/SVGExtensions/" width="11in"
		height="8.5in" viewBox="0 0 792 612" xml:space="preserve" color-interpolation-filters="sRGB" class="st17">
	<v:documentProperties v:langID="1033" v:viewMarkup="false"/>

	<style type="text/css">
	<![CDATA[
		.st1 {fill:#d9d9d9;stroke:#000000;stroke-linecap:round;stroke-linejoin:round;stroke-width:0.24}
		.st2 {fill:#000000;font-family:Arial;font-size:1.16666em}
		.st3 {font-size:1em}
		.st4 {fill:#ffffff;stroke:#000000;stroke-linecap:round;stroke-linejoin:round;stroke-width:0.24}
		.st5 {fill:#000000;font-family:Arial;font-size:1.99999em}
		.st6 {fill:#ffffff;stroke:#000000;stroke-dasharray:3.6,2.16;stroke-linecap:round;stroke-linejoin:round;stroke-width:0.24}
		.st7 {marker-end:url(#mrkr4-15);stroke:#000000;stroke-linecap:round;stroke-linejoin:round;stroke-width:0.239976}
		.st8 {fill:#000000;fill-opacity:1;stroke:#000000;stroke-opacity:1;stroke-width:0.086948582161584}
		.st9 {fill:#000000;font-family:Arial;font-size:1.00001em}
		.st10 {marker-end:url(#mrkr5-119);marker-start:url(#mrkr5-117);stroke:#000000;stroke-linecap:round;stroke-linejoin:round;stroke-width:0.239976}
		.st11 {marker-start:url(#mrkr5-117);stroke:#000000;stroke-linecap:round;stroke-linejoin:round;stroke-width:0.239976}
		.st12 {marker-end:url(#mrkr5-119);stroke:#000000;stroke-linecap:round;stroke-linejoin:round;stroke-width:0.239976}
		.st13 {fill:none;stroke:none;stroke-linecap:round;stroke-linejoin:round;stroke-width:0.72}
		.st14 {fill:#000000;font-family:Arial;font-size:0.833336em}
		.st15 {marker-end:url(#mrkr4-283);stroke:#000000;stroke-linecap:round;stroke-linejoin:round;stroke-width:0.239976}
		.st16 {fill:#000000;font-family:Arial;font-size:0.666664em}
		.st17 {fill:none;fill-rule:evenodd;font-size:12;overflow:visible;stroke-linecap:square;stroke-miterlimit:3}
	]]>
	</style>

	<defs id="Markers">
		<g id="lend4">
			<path d="M 2 1 L -0 0 L 2 -1 L 2 1 " style="stroke:none"/>
		</g>
		<marker id="mrkr4-15" class="st8" v:arrowType="4" v:arrowSize="2" v:setback="23.0021" refX="-23.002100210021" orient="auto"
				markerUnits="strokeWidth">
			<use xlink:href="#lend4" transform="scale(-11.501050105011,-11.501050105011) "/>
		</marker>
		<g id="lend5">
			<path d="M 2 1 L -0 0 L 1.98117 -0.993387 C 1.67173 -0.364515 1.67301 0.372641 1.98465 1.00043 " style="stroke:none"/>
		</g>
		<marker id="mrkr5-117" class="st8" v:arrowType="5" v:arrowSize="2" v:setback="18.6267" refX="18.626687668767" orient="auto"
				markerUnits="strokeWidth">
			<use xlink:href="#lend5" transform="scale(11.501050105011) "/>
		</marker>
		<marker id="mrkr5-119" class="st8" v:arrowType="5" v:arrowSize="2" v:setback="20.1268" refX="-20.126837683768"
				orient="auto" markerUnits="strokeWidth">
			<use xlink:href="#lend5" transform="scale(-11.501050105011,-11.501050105011) "/>
		</marker>
		<marker id="mrkr4-283" class="st8" v:arrowType="4" v:arrowSize="2" v:setback="0" refX="-0" orient="auto"
				markerUnits="strokeWidth">
			<use xlink:href="#lend4" transform="scale(-11.501050105011,-11.501050105011) "/>
		</marker>
	</defs>
	<g v:mID="0" v:index="1" v:groupContext="foregroundPage">
		<title>Page-1</title>
		<v:pageProperties v:drawingScale="1" v:pageScale="1" v:drawingUnits="0" v:shadowOffsetX="9" v:shadowOffsetY="-9"/>
		<v:layer v:name="Flowchart" v:index="0"/>
		<v:layer v:name="Connector" v:index="1"/>
		<g id="shape100-1" v:mID="100" v:groupContext="shape" v:layerMember="0" transform="translate(18,-546.024)">
			<title>Terminator.69</title>
			<desc>Investigation Reports</desc>
			<v:custProps>
				<v:cp v:nameU="Cost" v:lbl="Cost" v:type="7" v:format="@" v:langID="1033"/>
				<v:cp v:nameU="Duration" v:lbl="Duration" v:type="2" v:langID="1033"/>
				<v:cp v:nameU="Resources" v:lbl="Resources" v:langID="1033"/>
			</v:custProps>
			<v:userDefs>
				<v:ud v:nameU="visVersion" v:val="VT0(12):26"/>
			</v:userDefs>
			<v:textBlock v:margins="rect(2,2,2,2)"/>
			<v:textRect cx="45" cy="592.714" width="90" height="38.5714"/>
			<path d="M19.29 612 L70.71 612 A19.2857 19.2857 -180 0 0 70.71 573.43 L19.29 573.43 A19.2857 19.2857 -180 1 0 19.29 612
						 Z" class="st1"/>
			<text x="5.7" y="588.51" class="st2" v:langID="1033"><v:paragraph v:horizAlign="1"/><v:tabList/>Investigation <tspan
						x="20.49" dy="1.2em" class="st3">Reports</tspan></text>		</g>
		<g id="shape101-5" v:mID="101" v:groupContext="shape" v:layerMember="0" transform="translate(126,-504)">
			<title>Process.70</title>
			<desc>MA</desc>
			<v:custProps>
				<v:cp v:nameU="Cost" v:lbl="Cost" v:type="7" v:format="@" v:langID="1033"/>
				<v:cp v:nameU="Duration" v:lbl="Duration" v:type="2" v:langID="1033"/>
				<v:cp v:nameU="Resources" v:lbl="Resources" v:langID="1033"/>
			</v:custProps>
			<v:userDefs>
				<v:ud v:nameU="visVersion" v:val="VT0(12):26"/>
			</v:userDefs>
			<v:textBlock v:margins="rect(2,2,2,2)"/>
			<v:textRect cx="31.5" cy="569.25" width="63" height="85.5"/>
			<rect x="0" y="526.5" width="63" height="85.5" class="st4"/>
			<text x="13.5" y="576.45" class="st5" v:langID="1033"><v:paragraph v:horizAlign="1"/><v:tabList/>MA</text>		</g>
		<g id="shape105-8" v:mID="105" v:groupContext="shape" v:layerMember="0" transform="translate(207,-513)">
			<title>Process.74</title>
			<v:custProps>
				<v:cp v:nameU="Cost" v:lbl="Cost" v:type="7" v:format="@" v:langID="1033"/>
				<v:cp v:nameU="Duration" v:lbl="Duration" v:type="2" v:langID="1033"/>
				<v:cp v:nameU="Resources" v:lbl="Resources" v:langID="1033"/>
			</v:custProps>
			<v:userDefs>
				<v:ud v:nameU="visVersion" v:val="VT0(12):26"/>
			</v:userDefs>
			<path d="M0 612 L144 612 L144 535.5 L0 535.5 L0 612 Z" class="st6"/>
		</g>
		<g id="shape109-10" v:mID="109" v:groupContext="shape" v:layerMember="1" transform="translate(108,-556.342)">
			<title>Dynamic connector.109</title>
			<path d="M0 603.03 L11.52 603.03 L11.52 602.97 L12.48 602.97" class="st7"/>
		</g>
		<g id="shape111-16" v:mID="111" v:groupContext="shape" v:layerMember="0" transform="translate(129.647,-443.148)">
			<title>Terminator.80</title>
			<v:custProps>
				<v:cp v:nameU="Cost" v:lbl="Cost" v:type="7" v:format="@" v:langID="1033"/>
				<v:cp v:nameU="Duration" v:lbl="Duration" v:type="2" v:langID="1033"/>
				<v:cp v:nameU="Resources" v:lbl="Resources" v:langID="1033"/>
			</v:custProps>
			<v:userDefs>
				<v:ud v:nameU="visVersion" v:val="VT0(12):26"/>
			</v:userDefs>
			<path d="M21.43 612 L78.56 612 A21.4258 21.4258 -180 0 0 78.56 569.15 L21.43 569.15 A21.4258 21.4258 -180 1 0 21.43 612
						 Z" class="st6"/>
		</g>
		<g id="shape112-18" v:mID="112" v:groupContext="shape" v:layerMember="0" transform="translate(124.291,-436.899)">
			<title>Terminator.81</title>
			<v:custProps>
				<v:cp v:nameU="Cost" v:lbl="Cost" v:type="7" v:format="@" v:langID="1033"/>
				<v:cp v:nameU="Duration" v:lbl="Duration" v:type="2" v:langID="1033"/>
				<v:cp v:nameU="Resources" v:lbl="Resources" v:langID="1033"/>
			</v:custProps>
			<v:userDefs>
				<v:ud v:nameU="visVersion" v:val="VT0(12):26"/>
			</v:userDefs>
			<path d="M21.43 612 L78.56 612 A21.4258 21.4258 -180 0 0 78.56 569.15 L21.43 569.15 A21.4258 21.4258 -180 1 0 21.43 612
						 Z" class="st6"/>
		</g>
		<g id="shape113-20" v:mID="113" v:groupContext="shape" v:layerMember="0" transform="translate(119.566,-430.824)">
			<title>Terminator.82</title>
			<desc>Names</desc>
			<v:custProps>
				<v:cp v:nameU="Cost" v:lbl="Cost" v:type="7" v:format="@" v:langID="1033"/>
				<v:cp v:nameU="Duration" v:lbl="Duration" v:type="2" v:langID="1033"/>
				<v:cp v:nameU="Resources" v:lbl="Resources" v:langID="1033"/>
			</v:custProps>
			<v:userDefs>
				<v:ud v:nameU="visVersion" v:val="VT0(12):26"/>
			</v:userDefs>
			<v:textBlock v:margins="rect(2,2,2,2)"/>
			<v:textRect cx="49.9935" cy="590.574" width="99.99" height="42.8516"/>
			<path d="M21.43 612 L78.56 612 A21.4258 21.4258 -180 0 0 78.56 569.15 L21.43 569.15 A21.4258 21.4258 -180 1 0 21.43 612
						 Z" class="st6"/>
			<text x="30.99" y="594.17" class="st9" v:langID="1033"><v:paragraph v:horizAlign="1"/><v:tabList/>Names</text>		</g>
		<g id="shape102-23" v:mID="102" v:groupContext="shape" v:layerMember="1" transform="translate(189,-554.925)">
			<title>Dynamic connector.102</title>
			<path d="M0 603.08 L11.52 603.08 L11.52 602.92 L12.48 602.92" class="st7"/>
		</g>
		<g id="shape104-28" v:mID="104" v:groupContext="shape" v:layerMember="0" transform="translate(255.803,-443.148)">
			<title>Terminator.104</title>
			<v:custProps>
				<v:cp v:nameU="Cost" v:lbl="Cost" v:type="7" v:format="@" v:langID="1033"/>
				<v:cp v:nameU="Duration" v:lbl="Duration" v:type="2" v:langID="1033"/>
				<v:cp v:nameU="Resources" v:lbl="Resources" v:langID="1033"/>
			</v:custProps>
			<v:userDefs>
				<v:ud v:nameU="visVersion" v:val="VT0(12):26"/>
			</v:userDefs>
			<path d="M21.43 612 L78.56 612 A21.4258 21.4258 -180 0 0 78.56 569.15 L21.43 569.15 A21.4258 21.4258 -180 1 0 21.43 612
						 Z" class="st6"/>
		</g>
		<g id="shape106-30" v:mID="106" v:groupContext="shape" v:layerMember="0" transform="translate(250.447,-436.899)">
			<title>Terminator.106</title>
			<v:custProps>
				<v:cp v:nameU="Cost" v:lbl="Cost" v:type="7" v:format="@" v:langID="1033"/>
				<v:cp v:nameU="Duration" v:lbl="Duration" v:type="2" v:langID="1033"/>
				<v:cp v:nameU="Resources" v:lbl="Resources" v:langID="1033"/>
			</v:custProps>
			<v:userDefs>
				<v:ud v:nameU="visVersion" v:val="VT0(12):26"/>
			</v:userDefs>
			<path d="M21.43 612 L78.56 612 A21.4258 21.4258 -180 0 0 78.56 569.15 L21.43 569.15 A21.4258 21.4258 -180 1 0 21.43 612
						 Z" class="st6"/>
		</g>
		<g id="shape107-32" v:mID="107" v:groupContext="shape" v:layerMember="0" transform="translate(245.09,-430.65)">
			<title>Terminator.107</title>
			<desc>Places</desc>
			<v:custProps>
				<v:cp v:nameU="Cost" v:lbl="Cost" v:type="7" v:format="@" v:langID="1033"/>
				<v:cp v:nameU="Duration" v:lbl="Duration" v:type="2" v:langID="1033"/>
				<v:cp v:nameU="Resources" v:lbl="Resources" v:langID="1033"/>
			</v:custProps>
			<v:userDefs>
				<v:ud v:nameU="visVersion" v:val="VT0(12):26"/>
			</v:userDefs>
			<v:textBlock v:margins="rect(2,2,2,2)"/>
			<v:textRect cx="49.9935" cy="590.574" width="99.99" height="42.8516"/>
			<path d="M21.43 612 L78.56 612 A21.4258 21.4258 -180 0 0 78.56 569.15 L21.43 569.15 A21.4258 21.4258 -180 1 0 21.43 612
						 Z" class="st6"/>
			<text x="31.98" y="594.17" class="st9" v:langID="1033"><v:paragraph v:horizAlign="1"/><v:tabList/>Places</text>		</g>
		<g id="shape108-35" v:mID="108" v:groupContext="shape" v:layerMember="0" transform="translate(398.613,-563.073)">
			<title>Terminator.108</title>
			<v:custProps>
				<v:cp v:nameU="Cost" v:lbl="Cost" v:type="7" v:format="@" v:langID="1033"/>
				<v:cp v:nameU="Duration" v:lbl="Duration" v:type="2" v:langID="1033"/>
				<v:cp v:nameU="Resources" v:lbl="Resources" v:langID="1033"/>
			</v:custProps>
			<v:userDefs>
				<v:ud v:nameU="visVersion" v:val="VT0(12):26"/>
			</v:userDefs>
			<path d="M21.43 612 L78.56 612 A21.4258 21.4258 -180 0 0 78.56 569.15 L21.43 569.15 A21.4258 21.4258 -180 1 0 21.43 612
						 Z" class="st6"/>
		</g>
		<g id="shape110-37" v:mID="110" v:groupContext="shape" v:layerMember="0" transform="translate(393.256,-556.824)">
			<title>Terminator.110</title>
			<v:custProps>
				<v:cp v:nameU="Cost" v:lbl="Cost" v:type="7" v:format="@" v:langID="1033"/>
				<v:cp v:nameU="Duration" v:lbl="Duration" v:type="2" v:langID="1033"/>
				<v:cp v:nameU="Resources" v:lbl="Resources" v:langID="1033"/>
			</v:custProps>
			<v:userDefs>
				<v:ud v:nameU="visVersion" v:val="VT0(12):26"/>
			</v:userDefs>
			<path d="M21.43 612 L78.56 612 A21.4258 21.4258 -180 0 0 78.56 569.15 L21.43 569.15 A21.4258 21.4258 -180 1 0 21.43 612
						 Z" class="st6"/>
		</g>
		<g id="shape114-39" v:mID="114" v:groupContext="shape" v:layerMember="0" transform="translate(387.9,-550.575)">
			<title>Terminator.114</title>
			<desc>Dates</desc>
			<v:custProps>
				<v:cp v:nameU="Cost" v:lbl="Cost" v:type="7" v:format="@" v:langID="1033"/>
				<v:cp v:nameU="Duration" v:lbl="Duration" v:type="2" v:langID="1033"/>
				<v:cp v:nameU="Resources" v:lbl="Resources" v:langID="1033"/>
			</v:custProps>
			<v:userDefs>
				<v:ud v:nameU="visVersion" v:val="VT0(12):26"/>
			</v:userDefs>
			<v:textBlock v:margins="rect(2,2,2,2)"/>
			<v:textRect cx="49.9935" cy="590.574" width="99.99" height="42.8516"/>
			<path d="M21.43 612 L78.56 612 A21.4258 21.4258 -180 0 0 78.56 569.15 L21.43 569.15 A21.4258 21.4258 -180 1 0 21.43 612
						 Z" class="st6"/>
			<text x="34.32" y="594.17" class="st9" v:langID="1033"><v:paragraph v:horizAlign="1"/><v:tabList/>Dates</text>		</g>
		<g id="shape121-42" v:mID="121" v:groupContext="shape" v:layerMember="1" transform="translate(256.5,-521.202)">
			<title>Dynamic connector.121</title>
			<path d="M0 612 L0 635.68 L-76.86 635.68 L-76.86 641.68" class="st7"/>
		</g>
		<g id="shape122-47" v:mID="122" v:groupContext="shape" v:layerMember="1" transform="translate(314.898,-541.851)">
			<title>Dynamic connector.122</title>
			<path d="M-8.9 612 L-8.9 630 L-9.1 630 L-9.1 662.33" class="st7"/>
		</g>
		<g id="shape160-52" v:mID="160" v:groupContext="shape" v:layerMember="1" transform="translate(337.5,-562.95)">
			<title>Dynamic connector.160</title>
			<path d="M0 603.05 L18 603.05 L18 602.95 L44.88 602.95" class="st7"/>
		</g>
		<g id="shape161-57" v:mID="161" v:groupContext="shape" v:layerMember="0" transform="translate(18,-486)">
			<title>Terminator.161</title>
			<desc>Personal Records</desc>
			<v:custProps>
				<v:cp v:nameU="Cost" v:lbl="Cost" v:type="7" v:format="@" v:langID="1033"/>
				<v:cp v:nameU="Duration" v:lbl="Duration" v:type="2" v:langID="1033"/>
				<v:cp v:nameU="Resources" v:lbl="Resources" v:langID="1033"/>
			</v:custProps>
			<v:userDefs>
				<v:ud v:nameU="visVersion" v:val="VT0(12):26"/>
			</v:userDefs>
			<v:textBlock v:margins="rect(2,2,2,2)"/>
			<v:textRect cx="45" cy="592.714" width="90" height="38.5714"/>
			<path d="M19.29 612 L70.71 612 A19.2857 19.2857 -180 0 0 70.71 573.43 L19.29 573.43 A19.2857 19.2857 -180 1 0 19.29 612
						 Z" class="st4"/>
			<text x="17.37" y="588.51" class="st2" v:langID="1033"><v:paragraph v:horizAlign="1"/><v:tabList/>Personal <tspan
						x="18.93" dy="1.2em" class="st3">Records</tspan></text>		</g>
		<g id="shape162-61" v:mID="162" v:groupContext="shape" v:layerMember="0" transform="translate(22.5,-434.25)">
			<title>Process</title>
			<desc>Dependency Analysis</desc>
			<v:custProps>
				<v:cp v:nameU="Cost" v:lbl="Cost" v:type="7" v:format="@" v:langID="1033"/>
				<v:cp v:nameU="Duration" v:lbl="Duration" v:type="2" v:langID="1033"/>
				<v:cp v:nameU="Resources" v:lbl="Resources" v:langID="1033"/>
			</v:custProps>
			<v:userDefs>
				<v:ud v:nameU="visVersion" v:val="VT0(12):26"/>
			</v:userDefs>
			<v:textBlock v:margins="rect(2,2,2,2)"/>
			<v:textRect cx="40.5" cy="594" width="81" height="36"/>
			<rect x="0" y="576" width="81" height="36" class="st4"/>
			<text x="6.81" y="590.4" class="st9" v:langID="1033"><v:paragraph v:horizAlign="1"/><v:tabList/>Dependency <tspan
						x="18.16" dy="1.2em" class="st3">Analysis</tspan></text>		</g>
		<g id="shape163-65" v:mID="163" v:groupContext="shape" v:layerMember="1" transform="translate(54,-487.125)">
			<title>Dynamic connector.163</title>
			<path d="M9 613.13 L9 623.36" class="st7"/>
		</g>
		<g id="shape164-70" v:mID="164" v:groupContext="shape" v:layerMember="1" transform="translate(120.533,-443.25)">
			<title>Dynamic connector.164</title>
			<path d="M-0.97 603 L-11.51 603" class="st7"/>
		</g>
		<g id="shape165-75" v:mID="165" v:groupContext="shape" v:layerMember="0" transform="translate(388.934,-446.574)">
			<title>Process.165</title>
			<desc>Mapper</desc>
			<v:custProps>
				<v:cp v:nameU="Cost" v:lbl="Cost" v:type="7" v:format="@" v:langID="1033"/>
				<v:cp v:nameU="Duration" v:lbl="Duration" v:type="2" v:langID="1033"/>
				<v:cp v:nameU="Resources" v:lbl="Resources" v:langID="1033"/>
			</v:custProps>
			<v:userDefs>
				<v:ud v:nameU="visVersion" v:val="VT0(12):26"/>
			</v:userDefs>
			<v:textBlock v:margins="rect(2,2,2,2)"/>
			<v:textRect cx="37.2829" cy="594" width="74.57" height="36"/>
			<rect x="0" y="576" width="74.5657" height="36" class="st4"/>
			<text x="16.94" y="597.6" class="st9" v:langID="1033"><v:paragraph v:horizAlign="1"/><v:tabList/>Mapper</text>		</g>
		<g id="shape166-78" v:mID="166" v:groupContext="shape" v:layerMember="0" transform="translate(513,-566.499)">
			<title>Process.166</title>
			<desc>Sorter</desc>
			<v:custProps>
				<v:cp v:nameU="Cost" v:lbl="Cost" v:type="7" v:format="@" v:langID="1033"/>
				<v:cp v:nameU="Duration" v:lbl="Duration" v:type="2" v:langID="1033"/>
				<v:cp v:nameU="Resources" v:lbl="Resources" v:langID="1033"/>
			</v:custProps>
			<v:userDefs>
				<v:ud v:nameU="visVersion" v:val="VT0(12):26"/>
			</v:userDefs>
			<v:textBlock v:margins="rect(2,2,2,2)"/>
			<v:textRect cx="40.5" cy="594" width="81" height="36"/>
			<rect x="0" y="576" width="81" height="36" class="st4"/>
			<text x="24.16" y="597.6" class="st9" v:langID="1033"><v:paragraph v:horizAlign="1"/><v:tabList/>Sorter</text>		</g>
		<g id="shape169-81" v:mID="169" v:groupContext="shape" v:layerMember="1" transform="translate(496.8,-575.499)">
			<title>Dynamic connector.169</title>
			<path d="M1.8 603 L10.68 603" class="st7"/>
		</g>
		<g id="shape170-86" v:mID="170" v:groupContext="shape" v:layerMember="0" transform="translate(668.25,-559.138)">
			<title>Terminator.170</title>
			<desc>Interrogation Reports</desc>
			<v:custProps>
				<v:cp v:nameU="Cost" v:lbl="Cost" v:type="7" v:format="@" v:langID="1033"/>
				<v:cp v:nameU="Duration" v:lbl="Duration" v:type="2" v:langID="1033"/>
				<v:cp v:nameU="Resources" v:lbl="Resources" v:langID="1033"/>
			</v:custProps>
			<v:userDefs>
				<v:ud v:nameU="visVersion" v:val="VT0(12):26"/>
			</v:userDefs>
			<v:textBlock v:margins="rect(2,2,2,2)"/>
			<v:textRect cx="45" cy="592.714" width="90" height="38.5714"/>
			<path d="M19.29 612 L70.71 612 A19.2857 19.2857 -180 0 0 70.71 573.43 L19.29 573.43 A19.2857 19.2857 -180 1 0 19.29 612
						 Z" class="st1"/>
			<text x="5.7" y="588.51" class="st2" v:langID="1033"><v:paragraph v:horizAlign="1"/><v:tabList/>Interrogation <tspan
						x="20.49" dy="1.2em" class="st3">Reports</tspan></text>		</g>
		<g id="shape171-90" v:mID="171" v:groupContext="shape" v:layerMember="0" transform="translate(690.75,-423.157)">
			<title>Process.171</title>
			<desc>MA</desc>
			<v:custProps>
				<v:cp v:nameU="Cost" v:lbl="Cost" v:type="7" v:format="@" v:langID="1033"/>
				<v:cp v:nameU="Duration" v:lbl="Duration" v:type="2" v:langID="1033"/>
				<v:cp v:nameU="Resources" v:lbl="Resources" v:langID="1033"/>
			</v:custProps>
			<v:userDefs>
				<v:ud v:nameU="visVersion" v:val="VT0(12):26"/>
			</v:userDefs>
			<v:textBlock v:margins="rect(2,2,2,2)"/>
			<v:textRect cx="22.5" cy="556.313" width="45" height="111.375"/>
			<rect x="0" y="500.625" width="45" height="111.375" class="st4"/>
			<text x="4.5" y="563.51" class="st5" v:langID="1033"><v:paragraph v:horizAlign="1"/><v:tabList/>MA</text>		</g>
		<g id="shape172-93" v:mID="172" v:groupContext="shape" v:layerMember="0" transform="translate(614.81,-459)">
			<title>Process.172</title>
			<desc>Relation Extractor</desc>
			<v:custProps>
				<v:cp v:nameU="Cost" v:lbl="Cost" v:type="7" v:format="@" v:langID="1033"/>
				<v:cp v:nameU="Duration" v:lbl="Duration" v:type="2" v:langID="1033"/>
				<v:cp v:nameU="Resources" v:lbl="Resources" v:langID="1033"/>
			</v:custProps>
			<v:userDefs>
				<v:ud v:nameU="visVersion" v:val="VT0(12):26"/>
			</v:userDefs>
			<v:textBlock v:margins="rect(2,2,2,2)"/>
			<v:textRect cx="32.3449" cy="574.234" width="64.69" height="75.5321"/>
			<rect x="0" y="536.468" width="64.6897" height="75.5321" class="st4"/>
			<text x="6.66" y="570.03" class="st2" v:langID="1033"><v:paragraph v:horizAlign="1"/><v:tabList/>Relation <tspan
						x="4.34" dy="1.2em" class="st3">Extractor</tspan></text>		</g>
		<g id="shape173-97" v:mID="173" v:groupContext="shape" v:layerMember="1" transform="translate(704.25,-559.138)">
			<title>Dynamic connector.173</title>
			<path d="M9 612 L9 631.09" class="st7"/>
		</g>
		<g id="group11-102" transform="translate(85.5,-359.941)" v:mID="11" v:groupContext="group">
			<title>Sheet.11</title>
			<g id="shape3-103" v:mID="3" v:groupContext="shape" v:layerMember="1;0" transform="translate(19.5,-52)">
				<title>On-page reference</title>
				<v:userDefs>
					<v:ud v:nameU="visVersion" v:val="VT0(12):26"/>
				</v:userDefs>
				<path d="M0 602.25 A9.75 9.75 0 0 1 19.5 602.25 A9.75 9.75 0 1 1 0 602.25 Z" class="st4"/>
			</g>
			<g id="shape4-105" v:mID="4" v:groupContext="shape" v:layerMember="1;0" transform="translate(0,-25.7679)">
				<title>On-page reference.4</title>
				<v:userDefs>
					<v:ud v:nameU="visVersion" v:val="VT0(12):26"/>
				</v:userDefs>
				<path d="M0 602.25 A9.75 9.75 0 0 1 19.5 602.25 A9.75 9.75 0 1 1 0 602.25 Z" class="st4"/>
			</g>
			<g id="shape5-107" v:mID="5" v:groupContext="shape" v:layerMember="1;0" transform="translate(39,-25.7679)">
				<title>On-page reference.5</title>
				<v:userDefs>
					<v:ud v:nameU="visVersion" v:val="VT0(12):26"/>
				</v:userDefs>
				<path d="M0 602.25 A9.75 9.75 0 0 1 19.5 602.25 A9.75 9.75 0 1 1 0 602.25 Z" class="st4"/>
			</g>
			<g id="shape7-109" v:mID="7" v:groupContext="shape" v:layerMember="1;0" transform="translate(19.5,0)">
				<title>On-page reference.7</title>
				<v:userDefs>
					<v:ud v:nameU="visVersion" v:val="VT0(12):26"/>
				</v:userDefs>
				<path d="M0 602.25 A9.75 9.75 0 0 1 19.5 602.25 A9.75 9.75 0 1 1 0 602.25 Z" class="st4"/>
			</g>
			<g id="shape6-111" v:mID="6" v:groupContext="shape" v:layerMember="1" transform="translate(30,-57.6339)">
				<title>Dynamic connector.6</title>
				<path d="M7.73 619.3 L7.95 619.59 L10.05 622.41" class="st10"/>
			</g>
			<g id="shape8-120" v:mID="8" v:groupContext="shape" v:layerMember="1" transform="translate(28.5,-57.6339)">
				<title>Dynamic connector.8</title>
				<path d="M-7.73 619.3 L-7.95 619.59 L-10.05 622.41" class="st10"/>
			</g>
			<g id="shape9-127" v:mID="9" v:groupContext="shape" v:layerMember="1" transform="translate(48,-31.6339)">
				<title>Dynamic connector.9</title>
				<path d="M-7.83 619.46 L-8.05 619.74 L-9.95 622.26" class="st10"/>
			</g>
			<g id="shape10-134" v:mID="10" v:groupContext="shape" v:layerMember="1" transform="translate(10.5,-31.6339)">
				<title>Dynamic connector.10</title>
				<path d="M7.83 619.46 L8.05 619.74 L9.95 622.26" class="st10"/>
			</g>
		</g>
		<g id="shape22-141" v:mID="22" v:groupContext="shape" v:layerMember="1" transform="translate(355.79,-455.574)">
			<title>Dynamic connector.22</title>
			<path d="M0 603 L27.62 603" class="st7"/>
		</g>
		<g id="shape37-146" v:mID="37" v:groupContext="shape" v:layerMember="1" transform="translate(544.5,-566.499)">
			<title>Dynamic connector.37</title>
			<path d="M9 612 L9 628.48" class="st7"/>
		</g>
		<g id="group54-151" transform="translate(598.5,-361.125)" v:mID="54" v:groupContext="group">
			<title>Sheet.54</title>
			<g id="shape39-152" v:mID="39" v:groupContext="shape" v:layerMember="1;0" transform="translate(25.3532,-50.7064)">
				<title>On-page reference</title>
				<v:userDefs>
					<v:ud v:nameU="visVersion" v:val="VT0(12):26"/>
				</v:userDefs>
				<path d="M0 603.64 A8.36304 8.36304 0 1 1 16.73 603.64 A8.36304 8.36304 0 1 1 0 603.64 Z" class="st4"/>
			</g>
			<g id="shape40-154" v:mID="40" v:groupContext="shape" v:layerMember="1;0" transform="translate(1.4988E-014,-25.2652)">
				<title>On-page reference.4</title>
				<v:userDefs>
					<v:ud v:nameU="visVersion" v:val="VT0(12):26"/>
				</v:userDefs>
				<path d="M0 603.64 A8.36304 8.36304 0 1 1 16.73 603.64 A8.36304 8.36304 0 1 1 0 603.64 Z" class="st4"/>
			</g>
			<g id="shape41-156" v:mID="41" v:groupContext="shape" v:layerMember="1;0" transform="translate(50.7945,-25.2652)">
				<title>On-page reference.5</title>
				<v:userDefs>
					<v:ud v:nameU="visVersion" v:val="VT0(12):26"/>
				</v:userDefs>
				<path d="M0 603.64 A8.36304 8.36304 0 1 1 16.73 603.64 A8.36304 8.36304 0 1 1 0 603.64 Z" class="st4"/>
			</g>
			<g id="shape42-158" v:mID="42" v:groupContext="shape" v:layerMember="1;0" transform="translate(25.3532,0)">
				<title>On-page reference.7</title>
				<v:userDefs>
					<v:ud v:nameU="visVersion" v:val="VT0(12):26"/>
				</v:userDefs>
				<path d="M0 603.64 A8.36304 8.36304 0 1 1 16.73 603.64 A8.36304 8.36304 0 1 1 0 603.64 Z" class="st4"/>
			</g>
			<g id="shape43-160" v:mID="43" v:groupContext="shape" v:layerMember="1" transform="translate(32.7607,-60.1649)">
				<title>Dynamic connector.6</title>
				<path d="M10.11 622.09 L10.37 622.34 L11.08 623.04" class="st11"/>
			</g>
			<g id="shape48-165" v:mID="48" v:groupContext="shape" v:layerMember="1" transform="translate(24.7778,-53.3682)">
				<title>Dynamic connector.32</title>
				<path d="M8.99 619.13 L8.99 619.49 L9.03 627.34" class="st11"/>
			</g>
			<g id="shape49-170" v:mID="49" v:groupContext="shape" v:layerMember="1" transform="translate(42.7776,-32.1524)">
				<title>Dynamic connector.33</title>
				<path d="M-8.99 619.04 L-8.99 619.4 L-9.03 627.43" class="st11"/>
			</g>
			<g id="shape38-175" v:mID="38" v:groupContext="shape" v:layerMember="0" transform="translate(25.3532,-29.5788)">
				<title>Process.38</title>
				<v:custProps>
					<v:cp v:nameU="Cost" v:lbl="Cost" v:type="7" v:format="@" v:langID="1033"/>
					<v:cp v:nameU="Duration" v:lbl="Duration" v:type="2" v:langID="1033"/>
					<v:cp v:nameU="Resources" v:lbl="Resources" v:langID="1033"/>
				</v:custProps>
				<v:userDefs>
					<v:ud v:nameU="visVersion" v:val="VT0(12):26"/>
				</v:userDefs>
				<rect x="0" y="603.549" width="16.9021" height="8.45107" class="st4"/>
			</g>
			<g id="shape47-177" v:mID="47" v:groupContext="shape" v:layerMember="0"
					transform="translate(475.005,131.713) rotate(45)">
				<title>Process.47</title>
				<v:custProps>
					<v:cp v:nameU="Cost" v:lbl="Cost" v:type="7" v:format="@" v:langID="1033"/>
					<v:cp v:nameU="Duration" v:lbl="Duration" v:type="2" v:langID="1033"/>
					<v:cp v:nameU="Resources" v:lbl="Resources" v:langID="1033"/>
				</v:custProps>
				<v:userDefs>
					<v:ud v:nameU="visVersion" v:val="VT0(12):26"/>
				</v:userDefs>
				<rect x="0" y="607.518" width="7.46976" height="4.48186" class="st4"/>
			</g>
			<g id="shape50-179" v:mID="50" v:groupContext="shape" v:layerMember="1" transform="translate(42.2087,-50.7165)">
				<title>Dynamic connector.50</title>
				<path d="M10.05 622.06 L10.3 622.32 L11.09 623.12" class="st11"/>
			</g>
			<g id="shape51-184" v:mID="51" v:groupContext="shape" v:layerMember="1" transform="translate(7.42048,-34.781)">
				<title>Dynamic connector.51</title>
				<path d="M6.93 618.99 L7.61 619.64" class="st12"/>
			</g>
			<g id="shape52-189" v:mID="52" v:groupContext="shape" v:layerMember="0"
					transform="translate(449.651,157.067) rotate(45)">
				<title>Process.52</title>
				<v:custProps>
					<v:cp v:nameU="Cost" v:lbl="Cost" v:type="7" v:format="@" v:langID="1033"/>
					<v:cp v:nameU="Duration" v:lbl="Duration" v:type="2" v:langID="1033"/>
					<v:cp v:nameU="Resources" v:lbl="Resources" v:langID="1033"/>
				</v:custProps>
				<v:userDefs>
					<v:ud v:nameU="visVersion" v:val="VT0(12):26"/>
				</v:userDefs>
				<rect x="0" y="607.518" width="7.46976" height="4.48186" class="st4"/>
			</g>
			<g id="shape53-191" v:mID="53" v:groupContext="shape" v:layerMember="1" transform="translate(16.8117,-25.4075)">
				<title>Dynamic connector.53</title>
				<path d="M6.96 618.92 L7.66 619.63" class="st12"/>
			</g>
			<g id="shape44-196" v:mID="44" v:groupContext="shape" v:layerMember="1" transform="translate(34.7857,-60.1389)">
				<title>Dynamic connector.44</title>
				<path d="M-10.14 622.14 L-10.4 622.4 L-11.02 623.02" class="st11"/>
			</g>
			<g id="shape45-201" v:mID="45" v:groupContext="shape" v:layerMember="0"
					transform="translate(450.708,133.298) rotate(45)">
				<title>Process.45</title>
				<v:custProps>
					<v:cp v:nameU="Cost" v:lbl="Cost" v:type="7" v:format="@" v:langID="1033"/>
					<v:cp v:nameU="Duration" v:lbl="Duration" v:type="2" v:langID="1033"/>
					<v:cp v:nameU="Resources" v:lbl="Resources" v:langID="1033"/>
				</v:custProps>
				<v:userDefs>
					<v:ud v:nameU="visVersion" v:val="VT0(12):26"/>
				</v:userDefs>
				<rect x="0" y="605.651" width="3.73488" height="6.3493" class="st4"/>
			</g>
			<g id="shape46-203" v:mID="46" v:groupContext="shape" v:layerMember="1" transform="translate(25.7659,-51.0989)">
				<title>Dynamic connector.46</title>
				<path d="M-9.63 621.64 L-9.89 621.9 L-11.51 623.53" class="st11"/>
			</g>
		</g>
		<g id="shape56-208" v:mID="56" v:groupContext="shape" v:layerMember="0" transform="translate(295.084,-363.092)">
			<title>Process.56</title>
			<desc>Consistency Checker</desc>
			<v:custProps>
				<v:cp v:nameU="Cost" v:lbl="Cost" v:type="7" v:format="@" v:langID="1033"/>
				<v:cp v:nameU="Duration" v:lbl="Duration" v:type="2" v:langID="1033"/>
				<v:cp v:nameU="Resources" v:lbl="Resources" v:langID="1033"/>
			</v:custProps>
			<v:userDefs>
				<v:ud v:nameU="visVersion" v:val="VT0(12):26"/>
			</v:userDefs>
			<v:textBlock v:margins="rect(2,2,2,2)"/>
			<v:textRect cx="135.958" cy="594" width="271.92" height="36"/>
			<rect x="0" y="576" width="271.916" height="36" class="st4"/>
			<text x="79.27" y="597.6" class="st9" v:langID="1033"><v:paragraph v:horizAlign="1"/><v:tabList/>Consistency Checker</text>		</g>
		<g id="shape61-211" v:mID="61" v:groupContext="shape" v:layerMember="0" transform="translate(169.559,-359.898)">
			<title>Terminator.61</title>
			<desc>Consistency Report</desc>
			<v:custProps>
				<v:cp v:nameU="Cost" v:lbl="Cost" v:type="7" v:format="@" v:langID="1033"/>
				<v:cp v:nameU="Duration" v:lbl="Duration" v:type="2" v:langID="1033"/>
				<v:cp v:nameU="Resources" v:lbl="Resources" v:langID="1033"/>
			</v:custProps>
			<v:userDefs>
				<v:ud v:nameU="visVersion" v:val="VT0(12):26"/>
			</v:userDefs>
			<v:textBlock v:margins="rect(2,2,2,2)"/>
			<v:textRect cx="49.9935" cy="590.574" width="99.99" height="42.8516"/>
			<path d="M21.43 612 L78.56 612 A21.4258 21.4258 -180 0 0 78.56 569.15 L21.43 569.15 A21.4258 21.4258 -180 1 0 21.43 612
						 Z" class="st1"/>
			<text x="17.31" y="586.97" class="st9" v:langID="1033"><v:paragraph v:horizAlign="1"/><v:tabList/>Consistency <tspan
						x="31.98" dy="1.2em" class="st3">Report</tspan></text>		</g>
		<g id="shape167-215" v:mID="167" v:groupContext="shape" v:layerMember="0" transform="translate(381.217,-498.214)">
			<title>Terminator.167</title>
			<desc>Geography DB</desc>
			<v:custProps>
				<v:cp v:nameU="Cost" v:lbl="Cost" v:type="7" v:format="@" v:langID="1033"/>
				<v:cp v:nameU="Duration" v:lbl="Duration" v:type="2" v:langID="1033"/>
				<v:cp v:nameU="Resources" v:lbl="Resources" v:langID="1033"/>
			</v:custProps>
			<v:userDefs>
				<v:ud v:nameU="visVersion" v:val="VT0(12):26"/>
			</v:userDefs>
			<v:textBlock v:margins="rect(2,2,2,2)"/>
			<v:textRect cx="45" cy="592.714" width="90" height="38.5714"/>
			<path d="M19.29 612 L70.71 612 A19.2857 19.2857 -180 0 0 70.71 573.43 L19.29 573.43 A19.2857 19.2857 -180 1 0 19.29 612
						 Z" class="st4"/>
			<text x="10.37" y="588.51" class="st2" v:langID="1033"><v:paragraph v:horizAlign="1"/><v:tabList/>Geography <tspan
						x="35.28" dy="1.2em" class="st3">DB</tspan></text>		</g>
		<g id="group174-219" transform="translate(524.25,-470.814)" v:mID="174" v:groupContext="group">
			<title>Sheet.174</title>
			<g id="shape175-220" v:mID="175" v:groupContext="shape" v:layerMember="1;0" transform="translate(19.5,-52)">
				<title>On-page reference</title>
				<v:userDefs>
					<v:ud v:nameU="visVersion" v:val="VT0(12):26"/>
				</v:userDefs>
				<path d="M0 602.25 A9.75 9.75 0 0 1 19.5 602.25 A9.75 9.75 0 1 1 0 602.25 Z" class="st4"/>
			</g>
			<g id="shape176-222" v:mID="176" v:groupContext="shape" v:layerMember="1;0" transform="translate(0,-25.7679)">
				<title>On-page reference.4</title>
				<v:userDefs>
					<v:ud v:nameU="visVersion" v:val="VT0(12):26"/>
				</v:userDefs>
				<path d="M0 602.25 A9.75 9.75 0 0 1 19.5 602.25 A9.75 9.75 0 1 1 0 602.25 Z" class="st4"/>
			</g>
			<g id="shape177-224" v:mID="177" v:groupContext="shape" v:layerMember="1;0" transform="translate(39,-25.7679)">
				<title>On-page reference.5</title>
				<v:userDefs>
					<v:ud v:nameU="visVersion" v:val="VT0(12):26"/>
				</v:userDefs>
				<path d="M0 602.25 A9.75 9.75 0 0 1 19.5 602.25 A9.75 9.75 0 1 1 0 602.25 Z" class="st4"/>
			</g>
			<g id="shape178-226" v:mID="178" v:groupContext="shape" v:layerMember="1;0" transform="translate(19.5,0)">
				<title>On-page reference.7</title>
				<v:userDefs>
					<v:ud v:nameU="visVersion" v:val="VT0(12):26"/>
				</v:userDefs>
				<path d="M0 602.25 A9.75 9.75 0 0 1 19.5 602.25 A9.75 9.75 0 1 1 0 602.25 Z" class="st4"/>
			</g>
			<g id="shape179-228" v:mID="179" v:groupContext="shape" v:layerMember="1" transform="translate(30,-57.6339)">
				<title>Dynamic connector.6</title>
				<path d="M7.73 619.3 L7.95 619.59 L10.05 622.41" class="st10"/>
			</g>
			<g id="shape180-235" v:mID="180" v:groupContext="shape" v:layerMember="1" transform="translate(28.5,-57.6339)">
				<title>Dynamic connector.8</title>
				<path d="M-7.73 619.3 L-7.95 619.59 L-10.05 622.41" class="st10"/>
			</g>
			<g id="shape181-242" v:mID="181" v:groupContext="shape" v:layerMember="1" transform="translate(48,-31.6339)">
				<title>Dynamic connector.9</title>
				<path d="M-7.83 619.46 L-8.05 619.74 L-9.95 622.26" class="st10"/>
			</g>
			<g id="shape182-249" v:mID="182" v:groupContext="shape" v:layerMember="1" transform="translate(10.5,-31.6339)">
				<title>Dynamic connector.10</title>
				<path d="M7.83 619.46 L8.05 619.74 L9.95 622.26" class="st10"/>
			</g>
		</g>
		<g id="shape13-256" v:mID="13" v:groupContext="shape" v:layerMember="1" transform="translate(417.217,-499.394)">
			<title>Dynamic connector.13</title>
			<path d="M9 613.18 L9 623.3" class="st7"/>
		</g>
		<g id="shape16-261" v:mID="16" v:groupContext="shape" v:layerMember="1" transform="translate(279,-580.5)">
			<title>Dynamic connector.16</title>
			<path d="M0 603 L0 585 L-121.5 585 L-121.5 597.48" class="st7"/>
		</g>
		<g id="shape17-266" v:mID="17" v:groupContext="shape" transform="translate(207,-589.5)">
			<title>Sheet.17</title>
			<desc>Controllers</desc>
			<v:textBlock v:margins="rect(2,2,2,2)"/>
			<v:textRect cx="27" cy="607.5" width="54" height="9"/>
			<rect x="0" y="603" width="54" height="9" class="st13"/>
			<text x="2" y="610.5" class="st14" v:langID="1033"><v:paragraph/><v:tabList/>Controllers</text>		</g>
		<g id="shape18-269" v:mID="18" v:groupContext="shape" v:layerMember="0" transform="translate(220.5,-562.5)">
			<title>Process.18</title>
			<desc>Date</desc>
			<v:custProps>
				<v:cp v:nameU="Cost" v:lbl="Cost" v:type="7" v:format="@" v:langID="1033"/>
				<v:cp v:nameU="Duration" v:lbl="Duration" v:type="2" v:langID="1033"/>
				<v:cp v:nameU="Resources" v:lbl="Resources" v:langID="1033"/>
			</v:custProps>
			<v:userDefs>
				<v:ud v:nameU="visVersion" v:val="VT0(12):26"/>
			</v:userDefs>
			<v:textBlock v:margins="rect(2,2,2,2)"/>
			<v:textRect cx="58.5" cy="602.601" width="117" height="18.7984"/>
			<rect x="0" y="593.202" width="117" height="18.7984" class="st4"/>
			<text x="43.71" y="606.8" class="st2" v:langID="1033"><v:paragraph v:horizAlign="1"/><v:tabList/>Date</text>		</g>
		<g id="shape19-272" v:mID="19" v:groupContext="shape" v:layerMember="0" transform="translate(220.5,-541.851)">
			<title>Process.19</title>
			<desc>Place</desc>
			<v:custProps>
				<v:cp v:nameU="Cost" v:lbl="Cost" v:type="7" v:format="@" v:langID="1033"/>
				<v:cp v:nameU="Duration" v:lbl="Duration" v:type="2" v:langID="1033"/>
				<v:cp v:nameU="Resources" v:lbl="Resources" v:langID="1033"/>
			</v:custProps>
			<v:userDefs>
				<v:ud v:nameU="visVersion" v:val="VT0(12):26"/>
			</v:userDefs>
			<v:textBlock v:margins="rect(2,2,2,2)"/>
			<v:textRect cx="47.25" cy="602.601" width="94.5" height="18.7984"/>
			<rect x="0" y="593.202" width="94.5" height="18.7984" class="st4"/>
			<text x="29.74" y="606.8" class="st2" v:langID="1033"><v:paragraph v:horizAlign="1"/><v:tabList/>Place</text>		</g>
		<g id="shape20-275" v:mID="20" v:groupContext="shape" v:layerMember="0" transform="translate(220.5,-521.202)">
			<title>Process.20</title>
			<desc>Name</desc>
			<v:custProps>
				<v:cp v:nameU="Cost" v:lbl="Cost" v:type="7" v:format="@" v:langID="1033"/>
				<v:cp v:nameU="Duration" v:lbl="Duration" v:type="2" v:langID="1033"/>
				<v:cp v:nameU="Resources" v:lbl="Resources" v:langID="1033"/>
			</v:custProps>
			<v:userDefs>
				<v:ud v:nameU="visVersion" v:val="VT0(12):26"/>
			</v:userDefs>
			<v:textBlock v:margins="rect(2,2,2,2)"/>
			<v:textRect cx="36" cy="602.601" width="72" height="18.7984"/>
			<rect x="0" y="593.202" width="72" height="18.7984" class="st4"/>
			<text x="17.33" y="606.8" class="st2" v:langID="1033"><v:paragraph v:horizAlign="1"/><v:tabList/>Name</text>		</g>
		<g id="shape1-278" v:mID="1" v:groupContext="shape" v:layerMember="1" transform="translate(694.125,-494.813)">
			<title>Dynamic connector</title>
			<path d="M-3.38 620.81 L-10.75 620.81 L-10.75 621.19 L-14.63 621.19" class="st15"/>
		</g>
		<g id="shape2-284" v:mID="2" v:groupContext="shape" v:layerMember="1" transform="translate(666,-459)">
			<title>Dynamic connector.2</title>
			<path d="M0 612 L0 661.69 L47.25 661.69 L47.25 653.36" class="st7"/>
		</g>
		<g id="group14-289" transform="translate(479.25,-429.125)" v:mID="14" v:groupContext="group">
			<title>Sheet.14</title>
			<g id="shape21-290" v:mID="21" v:groupContext="shape" v:layerMember="1;0" transform="translate(19.5,-52)">
				<title>On-page reference</title>
				<v:userDefs>
					<v:ud v:nameU="visVersion" v:val="VT0(12):26"/>
				</v:userDefs>
				<path d="M0 602.25 A9.75 9.75 0 0 1 19.5 602.25 A9.75 9.75 0 1 1 0 602.25 Z" class="st4"/>
			</g>
			<g id="shape23-292" v:mID="23" v:groupContext="shape" v:layerMember="1;0" transform="translate(0,-25.7679)">
				<title>On-page reference.4</title>
				<v:userDefs>
					<v:ud v:nameU="visVersion" v:val="VT0(12):26"/>
				</v:userDefs>
				<path d="M0 602.25 A9.75 9.75 0 0 1 19.5 602.25 A9.75 9.75 0 1 1 0 602.25 Z" class="st4"/>
			</g>
			<g id="shape24-294" v:mID="24" v:groupContext="shape" v:layerMember="1;0" transform="translate(39,-25.7679)">
				<title>On-page reference.5</title>
				<v:userDefs>
					<v:ud v:nameU="visVersion" v:val="VT0(12):26"/>
				</v:userDefs>
				<path d="M0 602.25 A9.75 9.75 0 0 1 19.5 602.25 A9.75 9.75 0 1 1 0 602.25 Z" class="st4"/>
			</g>
			<g id="shape25-296" v:mID="25" v:groupContext="shape" v:layerMember="1;0" transform="translate(19.5,0)">
				<title>On-page reference.7</title>
				<v:userDefs>
					<v:ud v:nameU="visVersion" v:val="VT0(12):26"/>
				</v:userDefs>
				<path d="M0 602.25 A9.75 9.75 0 0 1 19.5 602.25 A9.75 9.75 0 1 1 0 602.25 Z" class="st4"/>
			</g>
			<g id="shape26-298" v:mID="26" v:groupContext="shape" v:layerMember="1" transform="translate(30,-57.6339)">
				<title>Dynamic connector.6</title>
				<path d="M7.73 619.3 L7.95 619.59 L10.05 622.41" class="st10"/>
			</g>
			<g id="shape27-305" v:mID="27" v:groupContext="shape" v:layerMember="1" transform="translate(28.5,-57.6339)">
				<title>Dynamic connector.8</title>
				<path d="M-7.73 619.3 L-7.95 619.59 L-10.05 622.41" class="st10"/>
			</g>
			<g id="shape28-312" v:mID="28" v:groupContext="shape" v:layerMember="1" transform="translate(48,-31.6339)">
				<title>Dynamic connector.9</title>
				<path d="M-7.83 619.46 L-8.05 619.74 L-9.95 622.26" class="st10"/>
			</g>
			<g id="shape29-319" v:mID="29" v:groupContext="shape" v:layerMember="1" transform="translate(10.5,-31.6339)">
				<title>Dynamic connector.10</title>
				<path d="M7.83 619.46 L8.05 619.74 L9.95 622.26" class="st10"/>
			</g>
		</g>
		<g id="shape15-326" v:mID="15" v:groupContext="shape" v:layerMember="1" transform="translate(499.5,-425.411)">
			<title>Dynamic connector.15</title>
			<path d="M9 612 L9 632.8" class="st7"/>
		</g>
		<g id="shape30-331" v:mID="30" v:groupContext="shape" v:layerMember="1" transform="translate(544.5,-467.1)">
			<title>Dynamic connector.30</title>
			<path d="M9 612 L9 674.49" class="st7"/>
		</g>
		<g id="shape12-336" v:mID="12" v:groupContext="shape" v:layerMember="1" transform="translate(63,-434.25)">
			<title>Dynamic connector.12</title>
			<path d="M0 612 L0 650.25 L12.48 650.25" class="st7"/>
		</g>
		<g id="shape32-341" v:mID="32" v:groupContext="shape" v:layerMember="1" transform="translate(135,-415.546)">
			<title>Dynamic connector.32</title>
			<path d="M0 613.55 L212.71 613.55 L212.71 622.93" class="st7"/>
		</g>
		<g id="shape33-346" v:mID="33" v:groupContext="shape" v:layerMember="1" transform="translate(295.084,-372.208)">
			<title>Dynamic connector.33</title>
			<path d="M0 603.12 L-14.4 603.12 L-14.4 602.88 L-20.02 602.88" class="st7"/>
		</g>
		<g id="shape34-351" v:mID="34" v:groupContext="shape" v:layerMember="1" transform="translate(460.666,-455.6)">
			<title>Dynamic connector.34</title>
			<path d="M2.83 603.03 L12.05 603.03 L12.05 602.97 L15.17 602.97" class="st15"/>
		</g>
		<g id="shape35-356" v:mID="35" v:groupContext="shape" transform="translate(616.5,-535.5)">
			<title>Sheet.35</title>
			<desc>Controller</desc>
			<v:textBlock v:margins="rect(2,2,2,2)"/>
			<v:textRect cx="24.75" cy="607.5" width="49.5" height="9"/>
			<rect x="0" y="603" width="49.5" height="9" class="st13"/>
			<text x="2" y="610.5" class="st14" v:langID="1033"><v:paragraph/><v:tabList/>Controller</text>		</g>
		<g id="shape31-359" v:mID="31" v:groupContext="shape" v:layerMember="1" transform="translate(598.5,-375.75)">
			<title>Dynamic connector.31</title>
			<path d="M0 603 L-25.98 603" class="st7"/>
		</g>
		<g id="shape36-364" v:mID="36" v:groupContext="shape" v:layerMember="1" transform="translate(623.255,-459)">
			<title>Dynamic connector.36</title>
			<path d="M8.99 612 L8.99 630 L9.01 630 L9.01 633.46" class="st7"/>
		</g>
		<g id="shape55-369" v:mID="55" v:groupContext="shape" transform="translate(101.067,-387.684)">
			<title>Sheet.55</title>
			<desc>PO</desc>
			<v:textBlock v:margins="rect(2,2,2,2)"/>
			<v:textRect cx="13.6499" cy="604.2" width="27.3" height="15.5996"/>
			<rect x="0" y="596.4" width="27.2997" height="15.5996" class="st13"/>
			<text x="7.87" y="606.6" class="st16" v:langID="1033"><v:paragraph v:horizAlign="1"/><v:tabList/>PO</text>		</g>
		<g id="shape57-372" v:mID="57" v:groupContext="shape" transform="translate(494.85,-457.075)">
			<title>Sheet.57</title>
			<desc>PO</desc>
			<v:textBlock v:margins="rect(2,2,2,2)"/>
			<v:textRect cx="13.6499" cy="604.2" width="27.3" height="15.5996"/>
			<rect x="0" y="596.4" width="27.2997" height="15.5996" class="st13"/>
			<text x="7.87" y="606.6" class="st16" v:langID="1033"><v:paragraph v:horizAlign="1"/><v:tabList/>PO</text>		</g>
		<g id="shape58-375" v:mID="58" v:groupContext="shape" transform="translate(539.85,-498.765)">
			<title>Sheet.58</title>
			<desc>PO</desc>
			<v:textBlock v:margins="rect(2,2,2,2)"/>
			<v:textRect cx="13.6499" cy="604.2" width="27.3" height="15.5996"/>
			<rect x="0" y="596.4" width="27.2997" height="15.5996" class="st13"/>
			<text x="7.87" y="606.6" class="st16" v:langID="1033"><v:paragraph v:horizAlign="1"/><v:tabList/>PO</text>		</g>
	</g>
</svg>
