<?xml version="1.0" encoding="UTF-8" standalone="no"?>
<!DOCTYPE svg PUBLIC "-//W3C//DTD SVG 1.0//EN" "http://www.w3.org/TR/2001/REC-SVG-20010904/DTD/svg10.dtd">
<!-- Generated by Microsoft Visio 11.0, SVG Export, v1.0 liturature case-study1.svg Page-1 -->
<svg xmlns="http://www.w3.org/2000/svg" xmlns:v="http://schemas.microsoft.com/visio/2003/SVGExtensions/" width="8.5in"
		height="11in" viewBox="0 0 612 792" xml:space="preserve" color-interpolation-filters="sRGB" class="st15">
	<v:documentProperties v:langID="1033" v:viewMarkup="false"/>

	<style type="text/css">
	<![CDATA[
		.st1 {fill:#d9d9d9;stroke:#000000;stroke-linecap:round;stroke-linejoin:round;stroke-width:0.24}
		.st2 {fill:#000000;font-family:Arial;font-size:1.5em}
		.st3 {font-size:1em}
		.st4 {marker-end:url(#mrkr4-10);stroke:#000000;stroke-linecap:round;stroke-linejoin:round;stroke-width:0.239976}
		.st5 {fill:#000000;fill-opacity:1;stroke:#000000;stroke-opacity:1;stroke-width:0.086948582161584}
		.st6 {fill:#ffffff;stroke:#000000;stroke-linecap:round;stroke-linejoin:round;stroke-width:0.24}
		.st7 {fill:#000000;font-family:Arial;font-size:0.833336em}
		.st8 {fill:#000000;font-family:Arial;font-size:1.99999em}
		.st9 {marker-end:url(#mrkr5-100);stroke:#000000;stroke-linecap:round;stroke-linejoin:round;stroke-width:0.239976}
		.st10 {fill:none;stroke:none;stroke-linecap:round;stroke-linejoin:round;stroke-width:0.72}
		.st11 {fill:#000000;font-family:Arial;font-size:0.666664em}
		.st12 {fill:#000000;font-family:Arial;font-size:0.75em}
		.st13 {marker-start:url(#mrkr10-202);stroke:#000000;stroke-linecap:round;stroke-linejoin:round;stroke-width:0.239976}
		.st14 {fill:#ffffff;stroke:#000000;stroke-dasharray:3.6,2.16;stroke-linecap:round;stroke-linejoin:round;stroke-width:0.24}
		.st15 {fill:none;fill-rule:evenodd;font-size:12;overflow:visible;stroke-linecap:square;stroke-miterlimit:3}
	]]>
	</style>

	<defs id="Markers">
		<g id="lend4">
			<path d="M 2 1 L -0 0 L 2 -1 L 2 1 " style="stroke:none"/>
		</g>
		<marker id="mrkr4-10" class="st5" v:arrowType="4" v:arrowSize="2" v:setback="23.0021" refX="-23.002100210021" orient="auto"
				markerUnits="strokeWidth">
			<use xlink:href="#lend4" transform="scale(-11.501050105011,-11.501050105011) "/>
		</marker>
		<g id="lend5">
			<path d="M 2 1 L -0 0 L 1.98117 -0.993387 C 1.67173 -0.364515 1.67301 0.372641 1.98465 1.00043 " style="stroke:none"/>
		</g>
		<marker id="mrkr5-100" class="st5" v:arrowType="5" v:arrowSize="2" v:setback="20.1268" refX="-20.126837683768"
				orient="auto" markerUnits="strokeWidth">
			<use xlink:href="#lend5" transform="scale(-11.501050105011,-11.501050105011) "/>
		</marker>
		<g id="lend10">
			<path
					d="M 0 0.75 C -0.414214 0.75 -0.75 0.414214 -0.75 -0 -0.75 -0.414214 -0.414214 -0.75 -0 -0.75 0.414214 -0.75 0.75 -0.414214 0.75 -0 0.75 0.414214 0.414214 0.75 0 0.75 Z "
					style="stroke:none"/>
		</g>
		<marker id="mrkr10-202" class="st5" v:arrowType="10" v:arrowSize="2" v:setback="7.12564" refX="7.1256375637564"
				orient="auto" markerUnits="strokeWidth">
			<use xlink:href="#lend10" transform="scale(11.501050105011) "/>
		</marker>
	</defs>
	<g v:mID="0" v:index="1" v:groupContext="foregroundPage">
		<title>Page-1</title>
		<v:pageProperties v:drawingScale="1" v:pageScale="1" v:drawingUnits="0" v:shadowOffsetX="9" v:shadowOffsetY="-9"/>
		<v:layer v:name="Connector" v:index="0"/>
		<v:layer v:name="Flowchart" v:index="1"/>
		<g id="shape1-1" v:mID="1" v:groupContext="shape" v:layerMember="1" transform="translate(0,-576)">
			<title>Terminator</title>
			<desc>Hadith Books</desc>
			<v:custProps>
				<v:cp v:nameU="Cost" v:lbl="Cost" v:type="7" v:format="@" v:langID="1033"/>
				<v:cp v:nameU="Duration" v:lbl="Duration" v:type="2" v:langID="1033"/>
				<v:cp v:nameU="Resources" v:lbl="Resources" v:langID="1033"/>
			</v:custProps>
			<v:userDefs>
				<v:ud v:nameU="visVersion" v:val="VT0(12):26"/>
			</v:userDefs>
			<v:textBlock v:margins="rect(2,2,2,2)"/>
			<v:textRect cx="63" cy="765" width="126" height="54"/>
			<path d="M27 792 L99 792 A27 27 -180 0 0 99 738 L27 738 A27 27 -180 1 0 27 792 Z" class="st1"/>
			<text x="36.98" y="759.6" class="st2" v:langID="1033"><v:paragraph v:horizAlign="1"/><v:tabList/>Hadith<v:newlineChar/><tspan
						x="37.99" dy="1.2em" class="st3">Books</tspan></text>		</g>
		<g id="shape3-5" v:mID="3" v:groupContext="shape" v:layerMember="0" transform="translate(126,-594)">
			<title>Dynamic connector</title>
			<path d="M0 783 L12.48 783" class="st4"/>
		</g>
		<g id="shape4-11" v:mID="4" v:groupContext="shape" v:layerMember="1" transform="translate(144,-580.5)">
			<title>Process.4</title>
			<desc>Narrator Chain Extractor</desc>
			<v:custProps>
				<v:cp v:nameU="Cost" v:lbl="Cost" v:type="7" v:format="@" v:langID="1033"/>
				<v:cp v:nameU="Duration" v:lbl="Duration" v:type="2" v:langID="1033"/>
				<v:cp v:nameU="Resources" v:lbl="Resources" v:langID="1033"/>
			</v:custProps>
			<v:userDefs>
				<v:ud v:nameU="visVersion" v:val="VT0(12):26"/>
			</v:userDefs>
			<v:textBlock v:margins="rect(2,2,2,2)"/>
			<v:textRect cx="25.875" cy="769.5" width="51.75" height="45"/>
			<rect x="0" y="747" width="51.75" height="45" class="st6"/>
			<text x="7.54" y="760.5" class="st7" v:langID="1033"><v:paragraph v:horizAlign="1"/><v:tabList/>Narrator <tspan
						x="12.81" dy="1.2em" class="st3">Chain </tspan><tspan x="5.87" dy="1.2em" class="st3">Extractor</tspan></text>		</g>
		<g id="shape12-16" v:mID="12" v:groupContext="shape" v:layerMember="1" transform="translate(289.679,-562.5)">
			<title>Process.12</title>
			<desc>MA</desc>
			<v:custProps>
				<v:cp v:nameU="Cost" v:lbl="Cost" v:type="7" v:format="@" v:langID="1033"/>
				<v:cp v:nameU="Duration" v:lbl="Duration" v:type="2" v:langID="1033"/>
				<v:cp v:nameU="Resources" v:lbl="Resources" v:langID="1033"/>
			</v:custProps>
			<v:userDefs>
				<v:ud v:nameU="visVersion" v:val="VT0(12):26"/>
			</v:userDefs>
			<v:textBlock v:margins="rect(2,2,2,2)"/>
			<v:textRect cx="25.875" cy="751.5" width="51.75" height="81"/>
			<rect x="0" y="711" width="51.75" height="81" class="st6"/>
			<text x="7.87" y="758.7" class="st8" v:langID="1033"><v:paragraph v:horizAlign="1"/><v:tabList/>MA</text>		</g>
		<g id="shape14-19" v:mID="14" v:groupContext="shape" v:layerMember="1" transform="translate(360.984,-573.328)">
			<title>Process.14</title>
			<desc>Merger Controller</desc>
			<v:custProps>
				<v:cp v:nameU="Cost" v:lbl="Cost" v:type="7" v:format="@" v:langID="1033"/>
				<v:cp v:nameU="Duration" v:lbl="Duration" v:type="2" v:langID="1033"/>
				<v:cp v:nameU="Resources" v:lbl="Resources" v:langID="1033"/>
			</v:custProps>
			<v:userDefs>
				<v:ud v:nameU="visVersion" v:val="VT0(12):26"/>
			</v:userDefs>
			<v:textBlock v:margins="rect(2,2,2,2)"/>
			<v:textRect cx="25.3828" cy="756.914" width="50.77" height="70.1719"/>
			<rect x="0" y="721.828" width="50.7656" height="70.1719" class="st6"/>
			<text x="9.55" y="753.91" class="st7" v:langID="1033"><v:paragraph v:horizAlign="1"/><v:tabList/>Merger <tspan x="3.71"
						dy="1.2em" class="st3">Controller</tspan></text>		</g>
		<g id="shape21-23" v:mID="21" v:groupContext="shape" v:layerMember="1" transform="translate(0,-717.75)">
			<title>Terminator.21</title>
			<desc>Biography Books</desc>
			<v:custProps>
				<v:cp v:nameU="Cost" v:lbl="Cost" v:type="7" v:format="@" v:langID="1033"/>
				<v:cp v:nameU="Duration" v:lbl="Duration" v:type="2" v:langID="1033"/>
				<v:cp v:nameU="Resources" v:lbl="Resources" v:langID="1033"/>
			</v:custProps>
			<v:userDefs>
				<v:ud v:nameU="visVersion" v:val="VT0(12):26"/>
			</v:userDefs>
			<v:textBlock v:margins="rect(2,2,2,2)"/>
			<v:textRect cx="63" cy="765" width="126" height="54"/>
			<path d="M27 792 L99 792 A27 27 -180 0 0 99 738 L27 738 A27 27 -180 1 0 27 792 Z" class="st1"/>
			<text x="22.47" y="759.6" class="st2" v:langID="1033"><v:paragraph v:horizAlign="1"/><v:tabList/>Biography <tspan
						x="37.99" dy="1.2em" class="st3">Books</tspan></text>		</g>
		<g id="shape22-27" v:mID="22" v:groupContext="shape" v:layerMember="1" transform="translate(144,-685.125)">
			<title>Process.22</title>
			<desc>MA</desc>
			<v:custProps>
				<v:cp v:nameU="Cost" v:lbl="Cost" v:type="7" v:format="@" v:langID="1033"/>
				<v:cp v:nameU="Duration" v:lbl="Duration" v:type="2" v:langID="1033"/>
				<v:cp v:nameU="Resources" v:lbl="Resources" v:langID="1033"/>
			</v:custProps>
			<v:userDefs>
				<v:ud v:nameU="visVersion" v:val="VT0(12):26"/>
			</v:userDefs>
			<v:textBlock v:margins="rect(2,2,2,2)"/>
			<v:textRect cx="25.875" cy="751.078" width="51.75" height="81.8438"/>
			<rect x="0" y="710.156" width="51.75" height="81.8438" class="st6"/>
			<text x="7.87" y="758.28" class="st8" v:langID="1033"><v:paragraph v:horizAlign="1"/><v:tabList/>MA</text>		</g>
		<g id="shape23-30" v:mID="23" v:groupContext="shape" v:layerMember="0" transform="translate(126,-735.75)">
			<title>Dynamic connector.23</title>
			<path d="M0 783 L12.48 783" class="st4"/>
		</g>
		<g id="shape26-35" v:mID="26" v:groupContext="shape" v:layerMember="1" transform="translate(225,-700.031)">
			<title>Process.26</title>
			<desc>Qualifier Pair Controller</desc>
			<v:custProps>
				<v:cp v:nameU="Cost" v:lbl="Cost" v:type="7" v:format="@" v:langID="1033"/>
				<v:cp v:nameU="Duration" v:lbl="Duration" v:type="2" v:langID="1033"/>
				<v:cp v:nameU="Resources" v:lbl="Resources" v:langID="1033"/>
			</v:custProps>
			<v:userDefs>
				<v:ud v:nameU="visVersion" v:val="VT0(12):26"/>
			</v:userDefs>
			<v:textBlock v:margins="rect(2,2,2,2)"/>
			<v:textRect cx="26.0156" cy="758.531" width="52.04" height="66.9375"/>
			<rect x="0" y="725.063" width="52.0313" height="66.9375" class="st6"/>
			<text x="7.4" y="749.53" class="st7" v:langID="1033"><v:paragraph v:horizAlign="1"/><v:tabList/>Qualifier <tspan
						x="17.12" dy="1.2em" class="st3">Pair </tspan><tspan x="4.34" dy="1.2em" class="st3">Controller</tspan></text>		</g>
		<g id="shape29-40" v:mID="29" v:groupContext="shape" v:layerMember="0" transform="translate(277.031,-757.208)">
			<title>Dynamic connector.29</title>
			<path d="M0 795.63 L18 795.63 L18 806.37 L32.45 806.37" class="st4"/>
		</g>
		<g id="shape30-45" v:mID="30" v:groupContext="shape" v:layerMember="0" transform="translate(195.75,-724.5)">
			<title>Dynamic connector.30</title>
			<path d="M0 783 L23.73 783" class="st4"/>
		</g>
		<g id="shape31-50" v:mID="31" v:groupContext="shape" v:layerMember="0" transform="translate(379.406,-770.008)">
			<title>Dynamic connector.31</title>
			<path d="M0 792 L16.59 792 L16.59 835.26 L-96.86 835.26" class="st4"/>
		</g>
		<g id="shape33-55" v:mID="33" v:groupContext="shape" v:layerMember="0" transform="translate(378.281,-745.855)">
			<title>Dynamic connector.33</title>
			<path d="M0 792 L17.72 792 L17.72 811.1 L-95.73 811.1" class="st4"/>
		</g>
		<g id="shape34-60" v:mID="34" v:groupContext="shape" v:layerMember="0" transform="translate(252,-757.969)">
			<title>Dynamic connector.34</title>
			<path d="M0 783 L0 765 L-82.97 765 L-82.97 777.48" class="st4"/>
		</g>
		<g id="shape36-65" v:mID="36" v:groupContext="shape" v:layerMember="0" transform="translate(251.016,-700.875)">
			<title>Dynamic connector.36</title>
			<path d="M0 792.84 L0 809.16 L29.21 809.16" class="st4"/>
		</g>
		<g id="shape28-70" v:mID="28" v:groupContext="shape" v:layerMember="1" transform="translate(423,-666)">
			<title>Process.28</title>
			<desc>Locator</desc>
			<v:custProps>
				<v:cp v:nameU="Cost" v:lbl="Cost" v:type="7" v:format="@" v:langID="1033"/>
				<v:cp v:nameU="Duration" v:lbl="Duration" v:type="2" v:langID="1033"/>
				<v:cp v:nameU="Resources" v:lbl="Resources" v:langID="1033"/>
			</v:custProps>
			<v:userDefs>
				<v:ud v:nameU="visVersion" v:val="VT0(12):26"/>
			</v:userDefs>
			<v:textBlock v:margins="rect(2,2,2,2)"/>
			<v:textRect cx="36" cy="765" width="72" height="54"/>
			<rect x="0" y="738" width="72" height="54" class="st6"/>
			<text x="5.98" y="770.4" class="st2" v:langID="1033"><v:paragraph v:horizAlign="1"/><v:tabList/>Locator</text>		</g>
		<g id="shape32-73" v:mID="32" v:groupContext="shape" v:layerMember="0" transform="translate(450,-634.5)">
			<title>Dynamic connector.32</title>
			<path d="M9 792 L9 766.02" class="st4"/>
		</g>
		<g id="shape38-78" v:mID="38" v:groupContext="shape" v:layerMember="0" transform="translate(402.75,-684)">
			<title>Dynamic connector.38</title>
			<path d="M0 783 L4.5 783 L4.5 783 L14.73 783" class="st4"/>
		</g>
		<g id="shape40-83" v:mID="40" v:groupContext="shape" v:layerMember="0" transform="translate(495,-684)">
			<title>Dynamic connector.40</title>
			<path d="M0 783 L23.83 783" class="st4"/>
		</g>
		<g id="group51-88" transform="translate(224.859,-575.578)" v:mID="51" v:groupContext="group">
			<title>Sheet.51</title>
			<g id="shape42-89" v:mID="42" v:groupContext="shape" v:layerMember="0;1" transform="translate(9.97159,-36.8182)">
				<title>On-page reference</title>
				<v:userDefs>
					<v:ud v:nameU="visVersion" v:val="VT0(12):26"/>
				</v:userDefs>
				<path d="M0 785.86 A6.13636 6.13636 0 0 1 12.27 785.86 A6.13636 6.13636 0 1 1 0 785.86 Z" class="st6"/>
			</g>
			<g id="shape43-91" v:mID="43" v:groupContext="shape" v:layerMember="0;1" transform="translate(9.97159,-18.4091)">
				<title>On-page reference.4</title>
				<v:userDefs>
					<v:ud v:nameU="visVersion" v:val="VT0(12):26"/>
				</v:userDefs>
				<path d="M0 785.86 A6.13636 6.13636 0 0 1 12.27 785.86 A6.13636 6.13636 0 1 1 0 785.86 Z" class="st6"/>
			</g>
			<g id="shape45-93" v:mID="45" v:groupContext="shape" v:layerMember="0;1" transform="translate(10.0355,0)">
				<title>On-page reference.7</title>
				<v:userDefs>
					<v:ud v:nameU="visVersion" v:val="VT0(12):26"/>
				</v:userDefs>
				<path d="M0 785.86 A6.13636 6.13636 0 0 1 12.27 785.86 A6.13636 6.13636 0 1 1 0 785.86 Z" class="st6"/>
			</g>
			<g id="shape47-95" v:mID="47" v:groupContext="shape" v:layerMember="0" transform="translate(25.108,-42.75)">
				<title>Dynamic connector.47</title>
				<path d="M-9 797.93 L-9 799.24" class="st9"/>
			</g>
			<g id="shape49-101" v:mID="49" v:groupContext="shape" v:layerMember="0" transform="translate(7.13991,-24.3409)">
				<title>Dynamic connector.10</title>
				<path d="M8.99 797.93 L8.99 799.24" class="st9"/>
			</g>
			<g id="shape41-106" v:mID="41" v:groupContext="shape" v:layerMember="0;1" transform="translate(28.3168,-36.8182)">
				<title>On-page reference.41</title>
				<v:userDefs>
					<v:ud v:nameU="visVersion" v:val="VT0(12):26"/>
				</v:userDefs>
				<path d="M0 785.86 A6.13636 6.13636 0 0 1 12.27 785.86 A6.13636 6.13636 0 1 1 0 785.86 Z" class="st6"/>
			</g>
			<g id="shape44-108" v:mID="44" v:groupContext="shape" v:layerMember="0;1" transform="translate(28.3168,-18.4091)">
				<title>On-page reference.44</title>
				<v:userDefs>
					<v:ud v:nameU="visVersion" v:val="VT0(12):26"/>
				</v:userDefs>
				<path d="M0 785.86 A6.13636 6.13636 0 0 1 12.27 785.86 A6.13636 6.13636 0 1 1 0 785.86 Z" class="st6"/>
			</g>
			<g id="shape46-110" v:mID="46" v:groupContext="shape" v:layerMember="0;1" transform="translate(28.3807,-1.13687E-013)">
				<title>On-page reference.46</title>
				<v:userDefs>
					<v:ud v:nameU="visVersion" v:val="VT0(12):26"/>
				</v:userDefs>
				<path d="M0 785.86 A6.13636 6.13636 0 0 1 12.27 785.86 A6.13636 6.13636 0 1 1 0 785.86 Z" class="st6"/>
			</g>
			<g id="shape48-112" v:mID="48" v:groupContext="shape" v:layerMember="0" transform="translate(43.4531,-42.75)">
				<title>Dynamic connector.48</title>
				<path d="M-9 797.93 L-9 799.24" class="st9"/>
			</g>
			<g id="shape50-117" v:mID="50" v:groupContext="shape" v:layerMember="0" transform="translate(25.4851,-24.3409)">
				<title>Dynamic connector.50</title>
				<path d="M8.99 797.93 L8.99 799.24" class="st9"/>
			</g>
			<g id="shape52-122" v:mID="52" v:groupContext="shape" transform="translate(-18,-48.7074)">
				<title>Sheet.52</title>
				<desc>Chains of Narrators</desc>
				<v:textBlock v:margins="rect(2,2,2,2)"/>
				<v:textRect cx="45" cy="788.932" width="90" height="6.13636"/>
				<rect x="0" y="785.864" width="90" height="6.13636" class="st10"/>
				<text x="10.32" y="791.33" class="st11" v:langID="1033"><v:paragraph v:horizAlign="1"/><v:tabList/>Chains of Narrators</text>			</g>
		</g>
		<g id="group10-125" transform="translate(433.125,-584.438)" v:mID="10" v:groupContext="group">
			<title>Sheet.10</title>
			<g id="shape53-126" v:mID="53" v:groupContext="shape" v:layerMember="0;1" transform="translate(9.97159,-36.8182)">
				<title>On-page reference</title>
				<v:userDefs>
					<v:ud v:nameU="visVersion" v:val="VT0(12):26"/>
				</v:userDefs>
				<path d="M0 785.86 A6.13636 6.13636 0 0 1 12.27 785.86 A6.13636 6.13636 0 1 1 0 785.86 Z" class="st6"/>
			</g>
			<g id="shape54-128" v:mID="54" v:groupContext="shape" v:layerMember="0;1" transform="translate(19.4063,-18.4091)">
				<title>On-page reference.4</title>
				<v:userDefs>
					<v:ud v:nameU="visVersion" v:val="VT0(12):26"/>
				</v:userDefs>
				<path d="M0 785.86 A6.13636 6.13636 0 0 1 12.27 785.86 A6.13636 6.13636 0 1 1 0 785.86 Z" class="st6"/>
			</g>
			<g id="shape55-130" v:mID="55" v:groupContext="shape" v:layerMember="0;1" transform="translate(10.0355,0)">
				<title>On-page reference.7</title>
				<v:userDefs>
					<v:ud v:nameU="visVersion" v:val="VT0(12):26"/>
				</v:userDefs>
				<path d="M0 785.86 A6.13636 6.13636 0 0 1 12.27 785.86 A6.13636 6.13636 0 1 1 0 785.86 Z" class="st6"/>
			</g>
			<g id="shape56-132" v:mID="56" v:groupContext="shape" v:layerMember="0" transform="translate(11.8253,-42.75)">
				<title>Dynamic connector.47</title>
				<path d="M7.08 797.26 L8.72 800.45" class="st9"/>
			</g>
			<g id="shape57-137" v:mID="57" v:groupContext="shape" v:layerMember="0" transform="translate(29.8572,-24.3409)">
				<title>Dynamic connector.10</title>
				<path d="M-7.1 797.26 L-8.71 800.43" class="st9"/>
			</g>
			<g id="shape58-142" v:mID="58" v:groupContext="shape" v:layerMember="0;1" transform="translate(28.3168,-36.8182)">
				<title>On-page reference.41</title>
				<v:userDefs>
					<v:ud v:nameU="visVersion" v:val="VT0(12):26"/>
				</v:userDefs>
				<path d="M0 785.86 A6.13636 6.13636 0 0 1 12.27 785.86 A6.13636 6.13636 0 1 1 0 785.86 Z" class="st6"/>
			</g>
			<g id="shape60-144" v:mID="60" v:groupContext="shape" v:layerMember="0;1" transform="translate(28.3807,-1.13687E-013)">
				<title>On-page reference.46</title>
				<v:userDefs>
					<v:ud v:nameU="visVersion" v:val="VT0(12):26"/>
				</v:userDefs>
				<path d="M0 785.86 A6.13636 6.13636 0 0 1 12.27 785.86 A6.13636 6.13636 0 1 1 0 785.86 Z" class="st6"/>
			</g>
			<g id="shape61-146" v:mID="61" v:groupContext="shape" v:layerMember="0" transform="translate(38.9979,-42.75)">
				<title>Dynamic connector.48</title>
				<path d="M-7.22 797.32 L-8.68 800.33" class="st9"/>
			</g>
			<g id="shape62-151" v:mID="62" v:groupContext="shape" v:layerMember="0" transform="translate(21.0298,-24.3409)">
				<title>Dynamic connector.50</title>
				<path d="M7.2 797.31 L8.68 800.35" class="st9"/>
			</g>
			<g id="shape63-156" v:mID="63" v:groupContext="shape" transform="translate(32.0625,-13.2443)">
				<title>Sheet.63</title>
				<desc>PO</desc>
				<v:textBlock v:margins="rect(2,2,2,2)"/>
				<v:textRect cx="7.875" cy="788.932" width="15.75" height="6.13636"/>
				<rect x="0" y="785.864" width="15.75" height="6.13636" class="st10"/>
				<text x="2.1" y="791.33" class="st11" v:langID="1033"><v:paragraph v:horizAlign="1"/><v:tabList/>PO</text>			</g>
		</g>
		<g id="group81-159" transform="translate(489.375,-665.763)" v:mID="81" v:groupContext="group">
			<title>Sheet.81</title>
			<g id="shape59-160" v:mID="59" v:groupContext="shape" v:layerMember="0;1" transform="translate(48.2216,-39.6818)">
				<title>On-page reference</title>
				<v:userDefs>
					<v:ud v:nameU="visVersion" v:val="VT0(12):26"/>
				</v:userDefs>
				<path d="M0 785.86 A6.13636 6.13636 0 0 1 12.27 785.86 A6.13636 6.13636 0 1 1 0 785.86 Z" class="st6"/>
			</g>
			<g id="shape64-162" v:mID="64" v:groupContext="shape" v:layerMember="0;1" transform="translate(57.6563,-21.2727)">
				<title>On-page reference.4</title>
				<v:userDefs>
					<v:ud v:nameU="visVersion" v:val="VT0(12):26"/>
				</v:userDefs>
				<path d="M0 785.86 A6.13636 6.13636 0 0 1 12.27 785.86 A6.13636 6.13636 0 1 1 0 785.86 Z" class="st6"/>
			</g>
			<g id="shape65-164" v:mID="65" v:groupContext="shape" v:layerMember="0;1" transform="translate(48.2855,-2.86364)">
				<title>On-page reference.7</title>
				<v:userDefs>
					<v:ud v:nameU="visVersion" v:val="VT0(12):26"/>
				</v:userDefs>
				<path d="M0 785.86 A6.13636 6.13636 0 0 1 12.27 785.86 A6.13636 6.13636 0 1 1 0 785.86 Z" class="st6"/>
			</g>
			<g id="shape66-166" v:mID="66" v:groupContext="shape" v:layerMember="0" transform="translate(50.0753,-45.6136)">
				<title>Dynamic connector.47</title>
				<path d="M7.08 797.26 L8.72 800.45" class="st9"/>
			</g>
			<g id="shape67-171" v:mID="67" v:groupContext="shape" v:layerMember="0" transform="translate(68.1072,-27.2045)">
				<title>Dynamic connector.10</title>
				<path d="M-7.1 797.26 L-8.71 800.43" class="st9"/>
			</g>
			<g id="shape68-176" v:mID="68" v:groupContext="shape" v:layerMember="0;1" transform="translate(66.5668,-39.6818)">
				<title>On-page reference.41</title>
				<v:userDefs>
					<v:ud v:nameU="visVersion" v:val="VT0(12):26"/>
				</v:userDefs>
				<path d="M0 785.86 A6.13636 6.13636 0 0 1 12.27 785.86 A6.13636 6.13636 0 1 1 0 785.86 Z" class="st6"/>
			</g>
			<g id="shape69-178" v:mID="69" v:groupContext="shape" v:layerMember="0;1" transform="translate(66.6307,-2.86364)">
				<title>On-page reference.46</title>
				<v:userDefs>
					<v:ud v:nameU="visVersion" v:val="VT0(12):26"/>
				</v:userDefs>
				<path d="M0 785.86 A6.13636 6.13636 0 0 1 12.27 785.86 A6.13636 6.13636 0 1 1 0 785.86 Z" class="st6"/>
			</g>
			<g id="shape70-180" v:mID="70" v:groupContext="shape" v:layerMember="0" transform="translate(77.2479,-45.6136)">
				<title>Dynamic connector.48</title>
				<path d="M-7.22 797.32 L-8.68 800.33" class="st9"/>
			</g>
			<g id="shape71-185" v:mID="71" v:groupContext="shape" v:layerMember="0" transform="translate(59.2798,-27.2045)">
				<title>Dynamic connector.50</title>
				<path d="M7.2 797.31 L8.68 800.35" class="st9"/>
			</g>
			<g id="shape72-190" v:mID="72" v:groupContext="shape" transform="translate(0,-54.473)">
				<title>Sheet.72</title>
				<desc>Partial Order Graph Annotated with Authenticity Qualifications</desc>
				<v:textBlock v:margins="rect(2,2,2,2)"/>
				<v:textRect cx="63" cy="776.813" width="126" height="30.375"/>
				<rect x="0" y="761.625" width="126" height="30.375" class="st10"/>
				<text x="23.73" y="768.71" class="st12" v:langID="1033"><v:paragraph v:horizAlign="1"/><v:tabList/>Partial Order Graph <tspan
							x="8.72" dy="1.2em" class="st3">Annotated with Authenticity </tspan><tspan x="35.99" dy="1.2em"
							class="st3">Qualifications</tspan></text>			</g>
			<g id="shape39-195" v:mID="39" v:groupContext="shape" v:layerMember="1" transform="translate(32.983,-42.9993)">
				<title>Process.39</title>
				<v:custProps>
					<v:cp v:nameU="Cost" v:lbl="Cost" v:type="7" v:format="@" v:langID="1033"/>
					<v:cp v:nameU="Duration" v:lbl="Duration" v:type="2" v:langID="1033"/>
					<v:cp v:nameU="Resources" v:lbl="Resources" v:langID="1033"/>
				</v:custProps>
				<v:userDefs>
					<v:ud v:nameU="visVersion" v:val="VT0(12):26"/>
				</v:userDefs>
				<rect x="0" y="786.362" width="9.76705" height="5.63778" class="st6"/>
			</g>
			<g id="shape19-197" v:mID="19" v:groupContext="shape" v:layerMember="0" transform="translate(36.4858,-36.8182)">
				<title>Dynamic connector.19</title>
				<path d="M7.97 783 L8.33 783 L11.74 783" class="st13"/>
			</g>
			<g id="shape73-203" v:mID="73" v:groupContext="shape" v:layerMember="1" transform="translate(41.983,-24.5902)">
				<title>Process.73</title>
				<v:custProps>
					<v:cp v:nameU="Cost" v:lbl="Cost" v:type="7" v:format="@" v:langID="1033"/>
					<v:cp v:nameU="Duration" v:lbl="Duration" v:type="2" v:langID="1033"/>
					<v:cp v:nameU="Resources" v:lbl="Resources" v:langID="1033"/>
				</v:custProps>
				<v:userDefs>
					<v:ud v:nameU="visVersion" v:val="VT0(12):26"/>
				</v:userDefs>
				<rect x="0" y="786.362" width="9.76705" height="5.63778" class="st6"/>
			</g>
			<g id="shape74-205" v:mID="74" v:groupContext="shape" v:layerMember="0" transform="translate(45.7031,-18.4091)">
				<title>Dynamic connector.74</title>
				<path d="M7.76 783 L8.12 783 L11.95 783" class="st13"/>
			</g>
			<g id="shape75-210" v:mID="75" v:groupContext="shape" v:layerMember="1" transform="translate(85.858,-42.9993)">
				<title>Process.75</title>
				<v:custProps>
					<v:cp v:nameU="Cost" v:lbl="Cost" v:type="7" v:format="@" v:langID="1033"/>
					<v:cp v:nameU="Duration" v:lbl="Duration" v:type="2" v:langID="1033"/>
					<v:cp v:nameU="Resources" v:lbl="Resources" v:langID="1033"/>
				</v:custProps>
				<v:userDefs>
					<v:ud v:nameU="visVersion" v:val="VT0(12):26"/>
				</v:userDefs>
				<rect x="0" y="786.362" width="9.76705" height="5.63778" class="st6"/>
			</g>
			<g id="shape76-212" v:mID="76" v:groupContext="shape" v:layerMember="0" transform="translate(91.3487,-36.8182)">
				<title>Dynamic connector.76</title>
				<path d="M-7.2 783 L-7.56 783 L-12.51 783" class="st13"/>
			</g>
			<g id="shape77-217" v:mID="77" v:groupContext="shape" v:layerMember="1" transform="translate(85.858,-6.18111)">
				<title>Process.77</title>
				<v:custProps>
					<v:cp v:nameU="Cost" v:lbl="Cost" v:type="7" v:format="@" v:langID="1033"/>
					<v:cp v:nameU="Duration" v:lbl="Duration" v:type="2" v:langID="1033"/>
					<v:cp v:nameU="Resources" v:lbl="Resources" v:langID="1033"/>
				</v:custProps>
				<v:userDefs>
					<v:ud v:nameU="visVersion" v:val="VT0(12):26"/>
				</v:userDefs>
				<rect x="0" y="786.362" width="9.76705" height="5.63778" class="st6"/>
			</g>
			<g id="shape78-219" v:mID="78" v:groupContext="shape" v:layerMember="1" transform="translate(32.983,-6.18111)">
				<title>Process.78</title>
				<v:custProps>
					<v:cp v:nameU="Cost" v:lbl="Cost" v:type="7" v:format="@" v:langID="1033"/>
					<v:cp v:nameU="Duration" v:lbl="Duration" v:type="2" v:langID="1033"/>
					<v:cp v:nameU="Resources" v:lbl="Resources" v:langID="1033"/>
				</v:custProps>
				<v:userDefs>
					<v:ud v:nameU="visVersion" v:val="VT0(12):26"/>
				</v:userDefs>
				<rect x="0" y="786.362" width="9.76705" height="5.63778" class="st6"/>
			</g>
			<g id="shape79-221" v:mID="79" v:groupContext="shape" v:layerMember="0" transform="translate(36.5178,0)">
				<title>Dynamic connector.79</title>
				<path d="M7.94 783 L8.3 783 L11.77 783" class="st13"/>
			</g>
			<g id="shape80-226" v:mID="80" v:groupContext="shape" v:layerMember="0" transform="translate(91.3807,0)">
				<title>Dynamic connector.80</title>
				<path d="M-7.23 783 L-7.59 783 L-12.48 783" class="st13"/>
			</g>
		</g>
		<g id="group84-231" transform="translate(285.75,-670.169)" v:mID="84" v:groupContext="group">
			<title>Sheet.84</title>
			<g id="shape82-232" v:mID="82" v:groupContext="shape" v:layerMember="1" transform="translate(9,-9.32143)">
				<title>Terminator.82</title>
				<v:custProps>
					<v:cp v:nameU="Cost" v:lbl="Cost" v:type="7" v:format="@" v:langID="1033"/>
					<v:cp v:nameU="Duration" v:lbl="Duration" v:type="2" v:langID="1033"/>
					<v:cp v:nameU="Resources" v:lbl="Resources" v:langID="1033"/>
				</v:custProps>
				<v:userDefs>
					<v:ud v:nameU="visVersion" v:val="VT0(12):26"/>
				</v:userDefs>
				<path d="M13.55 792 L94.45 792 A13.5502 13.5502 -180 0 0 94.45 764.9 L13.55 764.9 A13.5502 13.5502 -180 1 0 13.55
							 792 Z" class="st14"/>
			</g>
			<g id="shape83-234" v:mID="83" v:groupContext="shape" v:layerMember="1" transform="translate(4.5,-4.82143)">
				<title>Terminator.83</title>
				<v:custProps>
					<v:cp v:nameU="Cost" v:lbl="Cost" v:type="7" v:format="@" v:langID="1033"/>
					<v:cp v:nameU="Duration" v:lbl="Duration" v:type="2" v:langID="1033"/>
					<v:cp v:nameU="Resources" v:lbl="Resources" v:langID="1033"/>
				</v:custProps>
				<v:userDefs>
					<v:ud v:nameU="visVersion" v:val="VT0(12):26"/>
				</v:userDefs>
				<path d="M13.55 792 L94.45 792 A13.5502 13.5502 -180 0 0 94.45 764.9 L13.55 764.9 A13.5502 13.5502 -180 1 0 13.55
							 792 Z" class="st14"/>
			</g>
			<g id="shape35-236" v:mID="35" v:groupContext="shape" v:layerMember="1">
				<title>Terminator.35</title>
				<desc>&#60;Name, Qualifiers&#62;</desc>
				<v:custProps>
					<v:cp v:nameU="Cost" v:lbl="Cost" v:type="7" v:format="@" v:langID="1033"/>
					<v:cp v:nameU="Duration" v:lbl="Duration" v:type="2" v:langID="1033"/>
					<v:cp v:nameU="Resources" v:lbl="Resources" v:langID="1033"/>
				</v:custProps>
				<v:userDefs>
					<v:ud v:nameU="visVersion" v:val="VT0(12):26"/>
				</v:userDefs>
				<v:textBlock v:margins="rect(2,2,2,2)"/>
				<v:textRect cx="54" cy="778.45" width="108" height="27.1004"/>
				<path d="M13.55 792 L94.45 792 A13.5502 13.5502 -180 0 0 94.45 764.9 L13.55 764.9 A13.5502 13.5502 -180 1 0 13.55
							 792 Z" class="st14"/>
				<text x="10.93" y="781.45" class="st7" v:langID="1033"><v:paragraph v:horizAlign="1"/><v:tabList/>&#60;Name, Qualifiers&#62;</text>			</g>
		</g>
		<g id="group87-239" transform="translate(315,-734.344)" v:mID="87" v:groupContext="group">
			<title>Sheet.87</title>
			<g id="shape86-240" v:mID="86" v:groupContext="shape" v:layerMember="1" transform="translate(4.21875,-3.01923)">
				<title>Terminator.86</title>
				<v:custProps>
					<v:cp v:nameU="Cost" v:lbl="Cost" v:type="7" v:format="@" v:langID="1033"/>
					<v:cp v:nameU="Duration" v:lbl="Duration" v:type="2" v:langID="1033"/>
					<v:cp v:nameU="Resources" v:lbl="Resources" v:langID="1033"/>
				</v:custProps>
				<v:userDefs>
					<v:ud v:nameU="visVersion" v:val="VT0(12):26"/>
				</v:userDefs>
				<path d="M8.49 792 L50.57 792 A8.49159 8.49159 -180 0 0 50.57 775.02 L8.49 775.02 A8.49159 8.49159 -180 1 0 8.49
							 792 Z" class="st14"/>
			</g>
			<g id="shape85-242" v:mID="85" v:groupContext="shape" v:layerMember="1" transform="translate(2.25,-1.50962)">
				<title>Terminator.85</title>
				<v:custProps>
					<v:cp v:nameU="Cost" v:lbl="Cost" v:type="7" v:format="@" v:langID="1033"/>
					<v:cp v:nameU="Duration" v:lbl="Duration" v:type="2" v:langID="1033"/>
					<v:cp v:nameU="Resources" v:lbl="Resources" v:langID="1033"/>
				</v:custProps>
				<v:userDefs>
					<v:ud v:nameU="visVersion" v:val="VT0(12):26"/>
				</v:userDefs>
				<path d="M8.49 792 L50.57 792 A8.49159 8.49159 -180 0 0 50.57 775.02 L8.49 775.02 A8.49159 8.49159 -180 1 0 8.49
							 792 Z" class="st14"/>
			</g>
			<g id="shape24-244" v:mID="24" v:groupContext="shape" v:layerMember="1">
				<title>Terminator.24</title>
				<desc>Qualifiers</desc>
				<v:custProps>
					<v:cp v:nameU="Cost" v:lbl="Cost" v:type="7" v:format="@" v:langID="1033"/>
					<v:cp v:nameU="Duration" v:lbl="Duration" v:type="2" v:langID="1033"/>
					<v:cp v:nameU="Resources" v:lbl="Resources" v:langID="1033"/>
				</v:custProps>
				<v:userDefs>
					<v:ud v:nameU="visVersion" v:val="VT0(12):26"/>
				</v:userDefs>
				<v:textBlock v:margins="rect(2,2,2,2)"/>
				<v:textRect cx="29.5313" cy="783.508" width="59.07" height="16.9832"/>
				<path d="M8.49 792 L50.57 792 A8.49159 8.49159 -180 0 0 50.57 775.02 L8.49 775.02 A8.49159 8.49159 -180 1 0 8.49
							 792 Z" class="st14"/>
				<text x="8.41" y="786.51" class="st7" v:langID="1033"><v:paragraph v:horizAlign="1"/><v:tabList/>Qualifiers</text>			</g>
		</g>
		<g id="group88-247" transform="translate(316.125,-758.498)" v:mID="88" v:groupContext="group">
			<title>Sheet.88</title>
			<g id="shape89-248" v:mID="89" v:groupContext="shape" v:layerMember="1" transform="translate(4.21875,-3.01923)">
				<title>Terminator.86</title>
				<v:custProps>
					<v:cp v:nameU="Cost" v:lbl="Cost" v:type="7" v:format="@" v:langID="1033"/>
					<v:cp v:nameU="Duration" v:lbl="Duration" v:type="2" v:langID="1033"/>
					<v:cp v:nameU="Resources" v:lbl="Resources" v:langID="1033"/>
				</v:custProps>
				<v:userDefs>
					<v:ud v:nameU="visVersion" v:val="VT0(12):26"/>
				</v:userDefs>
				<path d="M8.49 792 L50.57 792 A8.49159 8.49159 -180 0 0 50.57 775.02 L8.49 775.02 A8.49159 8.49159 -180 1 0 8.49
							 792 Z" class="st14"/>
			</g>
			<g id="shape90-250" v:mID="90" v:groupContext="shape" v:layerMember="1" transform="translate(2.25,-1.50962)">
				<title>Terminator.85</title>
				<v:custProps>
					<v:cp v:nameU="Cost" v:lbl="Cost" v:type="7" v:format="@" v:langID="1033"/>
					<v:cp v:nameU="Duration" v:lbl="Duration" v:type="2" v:langID="1033"/>
					<v:cp v:nameU="Resources" v:lbl="Resources" v:langID="1033"/>
				</v:custProps>
				<v:userDefs>
					<v:ud v:nameU="visVersion" v:val="VT0(12):26"/>
				</v:userDefs>
				<path d="M8.49 792 L50.57 792 A8.49159 8.49159 -180 0 0 50.57 775.02 L8.49 775.02 A8.49159 8.49159 -180 1 0 8.49
							 792 Z" class="st14"/>
			</g>
			<g id="shape91-252" v:mID="91" v:groupContext="shape" v:layerMember="1">
				<title>Terminator.24</title>
				<desc>Names</desc>
				<v:custProps>
					<v:cp v:nameU="Cost" v:lbl="Cost" v:type="7" v:format="@" v:langID="1033"/>
					<v:cp v:nameU="Duration" v:lbl="Duration" v:type="2" v:langID="1033"/>
					<v:cp v:nameU="Resources" v:lbl="Resources" v:langID="1033"/>
				</v:custProps>
				<v:userDefs>
					<v:ud v:nameU="visVersion" v:val="VT0(12):26"/>
				</v:userDefs>
				<v:textBlock v:margins="rect(2,2,2,2)"/>
				<v:textRect cx="29.5313" cy="783.508" width="59.07" height="16.9832"/>
				<path d="M8.49 792 L50.57 792 A8.49159 8.49159 -180 0 0 50.57 775.02 L8.49 775.02 A8.49159 8.49159 -180 1 0 8.49
							 792 Z" class="st14"/>
				<text x="13.69" y="786.51" class="st7" v:langID="1033"><v:paragraph v:horizAlign="1"/><v:tabList/>Names</text>			</g>
		</g>
		<g id="shape106-255" v:mID="106" v:groupContext="shape" v:layerMember="0" transform="translate(195.75,-594)">
			<title>Dynamic connector.106</title>
			<path d="M0 783 L30.34 783" class="st4"/>
		</g>
		<g id="shape107-260" v:mID="107" v:groupContext="shape" v:layerMember="0" transform="translate(277.031,-751.285)">
			<title>Dynamic connector.107</title>
			<path d="M0 789.7 L18 789.7 L18 776.3 L33.57 776.3" class="st4"/>
		</g>
		<g id="shape13-265" v:mID="13" v:groupContext="shape" v:layerMember="0" transform="translate(268.734,-591.75)">
			<title>Dynamic connector.13</title>
			<path d="M0 783 L15.42 783" class="st4"/>
		</g>
		<g id="shape15-270" v:mID="15" v:groupContext="shape" v:layerMember="0" transform="translate(250.172,-628.664)">
			<title>Dynamic connector.15</title>
			<path d="M0 788.84 L0 763.66 L136.2 763.66 L136.2 771.64" class="st4"/>
		</g>
		<g id="shape16-275" v:mID="16" v:groupContext="shape" v:layerMember="0" transform="translate(385.875,-576.914)">
			<title>Dynamic connector.16</title>
			<path d="M0 795.59 L0 817.52 L-70.32 817.52 L-70.32 811.93" class="st4"/>
		</g>
		<g id="shape17-280" v:mID="17" v:groupContext="shape" v:layerMember="0" transform="translate(341.429,-599.203)">
			<title>Dynamic connector.17</title>
			<path d="M0 783 L14.04 783" class="st4"/>
		</g>
		<g id="shape18-285" v:mID="18" v:groupContext="shape" v:layerMember="0" transform="translate(411.75,-599.625)">
			<title>Dynamic connector.18</title>
			<path d="M0 783 L25.42 783" class="st4"/>
		</g>
	</g>
</svg>
